<svg width="36" height="49" viewBox="0 0 36 49" fill="none" xmlns="http://www.w3.org/2000/svg">
<path d="M13.2977 37.2909H22.1578C22.4463 34.5183 23.786 32.2301 25.9606 29.732C26.2075 29.4506 27.7789 27.7321 27.9647 27.4876C29.5083 25.4523 30.4758 22.9982 30.7558 20.408C31.0359 17.8177 30.617 15.1967 29.5475 12.8467C28.478 10.4967 26.8014 8.51326 24.7107 7.12487C22.62 5.73648 20.2002 4.99958 17.7301 4.99902C15.26 4.99847 12.8399 5.73428 10.7486 7.12172C8.65736 8.50917 6.97992 10.4918 5.90947 12.8414C4.83903 15.1909 4.41912 17.8117 4.69811 20.4021C4.9771 22.9925 5.94363 25.447 7.48641 27.483C7.67436 27.7298 9.25012 29.4506 9.49271 29.7297C11.6695 32.2301 13.0092 34.5183 13.2977 37.2909ZM22.0988 41.9042H13.3567V44.2109H22.0988V41.9042ZM4.077 30.371C2.01866 27.6567 0.72868 24.384 0.355649 20.9297C-0.0173825 17.4755 0.541715 13.9803 1.96854 10.8468C3.39536 7.7133 5.63185 5.06894 8.4204 3.21833C11.2089 1.36772 14.4361 0.386162 17.7301 0.386719C21.0241 0.387276 24.2509 1.36993 27.0389 3.22148C29.8269 5.07303 32.0626 7.71815 33.4885 10.8521C34.9143 13.9861 35.4724 17.4815 35.0983 20.9356C34.7242 24.3897 33.4332 27.662 31.3741 30.3756C30.0191 32.1563 26.4698 34.9843 26.4698 38.4443V44.2109C26.4698 45.4344 26.0093 46.6078 25.1895 47.473C24.3698 48.3382 23.258 48.8242 22.0988 48.8242H13.3567C12.1974 48.8242 11.0856 48.3382 10.2659 47.473C9.44619 46.6078 8.98567 45.4344 8.98567 44.2109V38.4443C8.98567 34.9843 5.43421 32.1563 4.077 30.371ZM19.9132 18.8469H25.377L15.5422 32.6868V23.4602H10.0784L19.9132 9.61104V18.8492V18.8469Z" fill="#E0BE74"/>
</svg>
