<svg width="52" height="51" viewBox="0 0 52 51" fill="none" xmlns="http://www.w3.org/2000/svg">
<path d="M32 41H34.9596V43.9517H32V41Z" fill="#E0BE74"/>
<path d="M51.2548 0H49.775C47.36 0 45.2112 1.16099 43.8599 2.95166H43.8559C41.4378 2.95166 39.2875 4.11461 37.9368 5.90824V5.90332C33.8566 5.90332 30.5379 9.2139 30.5379 13.2825V20.381L26 24.8443L21.462 20.381V13.2825C21.462 9.2139 18.1433 5.90332 14.0631 5.90332V5.90824C12.7125 4.11461 10.5621 2.95166 8.144 2.95166H8.14005C6.78882 1.16099 4.63989 0 2.22489 0H0.745117V23.1824L11.2299 35.6167H9.62377V50.375H42.3761V35.6167H40.77L51.2548 23.1824V0ZM18.5024 13.2825V17.7552C17.5996 17.2119 16.5904 16.868 15.5429 16.7467V10.3308C15.5429 9.90184 15.5036 9.48073 15.4334 9.07144C17.2124 9.64898 18.5024 11.3176 18.5024 13.2825ZM9.62377 6.15618C11.3462 6.7654 12.5833 8.40643 12.5833 10.3308V16.9936C11.8788 17.1994 11.2091 17.5091 10.5965 17.9125L9.62377 16.9435V6.15618ZM24.5202 47.4233H12.5833V38.5684H24.5202V47.4233ZM24.5202 35.6167H15.097L3.70467 22.107V3.20462C5.42713 3.81354 6.66422 5.45467 6.66422 7.37915V18.1665L15.976 27.4535L18.0693 25.3667L12.7618 20.0733C13.3517 19.7907 14.0018 19.6423 14.6758 19.6423C15.8616 19.6423 16.9764 20.1028 17.8149 20.9391L24.5202 27.5343V35.6167ZM39.4166 10.3308C39.4166 8.40643 40.6537 6.7654 42.3761 6.15618V16.9435L41.4034 17.9125C40.7908 17.5091 40.1211 17.1994 39.4166 16.9936V10.3308ZM33.4975 13.2825C33.4975 11.3177 34.7877 9.64898 36.5665 9.07144C36.4945 9.48739 36.4578 9.90869 36.457 10.3308V16.7467C35.4096 16.868 34.4004 17.2119 33.4975 17.7552V13.2825ZM39.4166 47.4233H27.4797V38.5684H39.4166V47.4233ZM48.2953 22.107L36.9029 35.6167H27.4797V27.5343L34.185 20.9391C35.0235 20.1028 36.1383 19.6423 37.3241 19.6423C37.9981 19.6423 38.6482 19.7907 39.2381 20.0733L33.9307 25.3666L36.0239 27.4535L45.3357 18.1666V7.37915C45.3357 5.45477 46.5728 3.81374 48.2953 3.20452V22.107Z" fill="#E0BE74"/>
<path d="M13.7979 41H16.7574V43.9517H13.7979V41Z" fill="#E0BE74"/>
</svg>
