<svg width="58" height="58" viewBox="0 0 58 58" fill="none" xmlns="http://www.w3.org/2000/svg">
<g id="Icon">
<rect id="Rectangle 55" x="0.5" y="0.5" width="57" height="57" rx="5.5" stroke="#E0BE74"/>
<g id="Group 106">
<path id="Vector" d="M36.1186 44.5616C36.2428 44.5698 36.3714 44.5698 36.4744 44.5698H36.4813C37.7331 44.5698 38.7213 44.1508 39.5446 43.2704L39.5528 43.2616L39.5606 43.2525C39.9879 42.7494 40.4459 42.2977 40.9095 41.8555L40.9095 41.8555L40.9138 41.8514C40.9671 41.7993 41.0204 41.7475 41.0735 41.6958C41.3203 41.4559 41.565 41.2181 41.8033 40.9616C42.2205 40.527 42.4892 40.0314 42.4879 39.4832C42.4866 38.9316 42.2123 38.4409 41.7855 38.0179C41.7852 38.0175 41.7849 38.0172 41.7845 38.0169L37.8323 34.0647L37.8256 34.058C37.5643 33.7742 37.0774 33.38 36.4311 33.38C35.7714 33.38 35.2603 33.7983 34.994 34.0647L32.5398 36.5188C32.4265 36.6321 32.1807 36.8675 31.8026 36.8675C31.6553 36.8675 31.5038 36.8338 31.3229 36.7445L31.3141 36.739L31.313 36.7383C31.3065 36.7342 31.2951 36.7271 31.2829 36.7198C31.2751 36.7152 31.2656 36.7097 31.2547 36.7038C31.0305 36.5659 30.7752 36.4383 30.5313 36.3164L30.5193 36.3103C30.2293 36.1653 29.9502 36.0254 29.6808 35.8545L29.6803 35.8542C27.4292 34.4306 25.3806 32.5677 23.429 30.1635L23.4126 30.1434L23.4082 30.1389C22.3516 28.7945 21.6683 27.6819 21.1846 26.5149L21.1699 26.4709C21.1133 26.291 21.0776 26.1194 21.0976 25.9462C21.1163 25.7854 21.1877 25.5831 21.421 25.3498L21.4472 25.3235C22.0785 24.7569 22.6574 24.1779 23.257 23.564C23.3978 23.4279 23.5387 23.2854 23.6758 23.1467C23.7433 23.0784 23.8099 23.011 23.8751 22.9458C24.303 22.518 24.5921 22.0321 24.5921 21.48C24.5921 20.9279 24.303 20.442 23.8751 20.0142L21.9188 18.0578C21.8044 17.9399 21.6903 17.824 21.5785 17.7105L21.5753 17.7072C21.4612 17.5913 21.3496 17.4779 21.24 17.3648C20.8034 16.9139 20.3818 16.4849 19.9368 16.0686L19.932 16.0638L19.9212 16.0531C19.6605 15.7923 19.1727 15.4043 18.5199 15.4043C17.9853 15.4043 17.4958 15.6655 17.087 16.0493L17.0812 16.0547L17.0757 16.0602L14.6287 18.5072C13.9494 19.1865 13.5755 19.9928 13.4937 20.9495L13.4936 20.9512C13.378 22.3613 13.6441 23.8297 14.327 25.6584C15.434 28.6493 17.1024 31.4242 19.5775 34.4074L19.579 34.4092C22.5871 38 26.2096 40.8359 30.3361 42.8335L30.3383 42.8346C31.8347 43.5502 33.8872 44.4187 36.1186 44.5616ZM36.1186 44.5616C36.1184 44.5616 36.1182 44.5616 36.118 44.5616L36.1512 44.0627L36.1193 44.5616C36.1191 44.5616 36.1188 44.5616 36.1186 44.5616ZM38.5103 33.4083L38.5102 33.4084L38.5167 33.4149L42.4563 37.3688L42.4587 37.3712C43.1024 38.0085 43.4156 38.7391 43.4156 39.4772C43.4156 40.2113 43.1069 40.9526 42.4715 41.6136L42.4705 41.6147C42.1694 41.9298 41.8599 42.2324 41.5541 42.5239L41.5541 42.5239L41.5513 42.5266C41.5168 42.56 41.4823 42.5934 41.4477 42.6268C41.0365 43.0243 40.622 43.425 40.2577 43.8664L40.2493 43.8766C40.2462 43.88 40.2429 43.8838 40.2395 43.8879C40.2354 43.8927 40.2311 43.898 40.2266 43.9037C39.2374 44.9663 37.9873 45.5002 36.4741 45.5002C36.3455 45.5002 36.2007 45.4937 36.05 45.4866C33.69 45.3343 31.5605 44.445 29.9231 43.6691C25.6695 41.6126 21.9447 38.6941 18.8466 34.995C16.2855 31.916 14.5811 29.0583 13.4418 25.9849L13.4418 25.9849C12.974 24.7234 12.3902 22.8578 12.5526 20.8767C12.6574 19.6955 13.13 18.6861 13.9652 17.8509L13.9652 17.8509L13.9667 17.8494L16.405 15.3896L16.4065 15.388L16.4122 15.3824L16.4156 15.3789C17.0529 14.7686 17.7783 14.4668 18.5056 14.4668C19.2328 14.4668 19.9429 14.7685 20.5578 15.377L20.564 15.3832L20.5704 15.3891C21.025 15.8087 21.4681 16.2585 21.8966 16.7013C22.1166 16.9358 22.3499 17.1692 22.5696 17.3888L22.5724 17.3916L24.5314 19.3507C25.2072 20.0264 25.5152 20.769 25.5152 21.48C25.5152 22.191 25.2072 22.9336 24.5314 23.6093C24.4294 23.7114 24.3276 23.8149 24.2277 23.9167L24.2269 23.9174C24.1262 24.02 24.0273 24.1206 23.9287 24.2193L23.9263 24.2217C23.8751 24.2735 23.8239 24.3255 23.7727 24.3775C23.2889 24.8684 22.8015 25.363 22.2799 25.84L22.0125 26.0846L22.1618 26.4148C22.6209 27.4309 23.2483 28.4202 24.1628 29.5761L24.1627 29.5761L24.1671 29.5815C26.047 31.8913 28.0165 33.6878 30.1926 35.0699L30.1926 35.0699L30.197 35.0727C30.4248 35.214 30.686 35.3446 30.9353 35.4693L30.9439 35.4736C31.0087 35.5072 31.0717 35.5395 31.1338 35.5714C31.252 35.6321 31.3673 35.6912 31.4866 35.7554L31.8136 35.9315L32.0767 35.6693L34.3442 33.4089L34.3448 33.4083C34.9918 32.7614 35.7164 32.4497 36.4454 32.4497C37.1796 32.4497 37.8941 32.7667 38.5103 33.4083ZM41.8045 40.9567L41.4463 40.6115C41.5674 40.4849 41.6683 40.3585 41.7488 40.2323C41.7824 40.2594 41.8141 40.2922 41.8421 40.3314C41.9127 40.4308 41.9345 40.537 41.9345 40.6209C41.9345 40.7733 41.8666 40.8784 41.8325 40.9231C41.8234 40.9351 41.814 40.9463 41.8045 40.9567Z" fill="#023440" stroke="#E0BE74"/>
<path id="Vector_2" d="M30.4574 19.5947L30.4574 19.5947L30.4546 19.5942C30.2102 19.5546 30.0383 19.3161 30.0846 19.056C30.1297 18.8032 30.3678 18.6306 30.6301 18.6723C32.8009 19.0425 34.78 20.0695 36.3502 21.6397C37.9204 23.2099 38.9474 25.189 39.3176 27.3598C39.3594 27.6229 39.1877 27.8587 38.9417 27.9027C38.8816 27.9102 38.8675 27.9119 38.8493 27.9119C38.6193 27.9119 38.4256 27.7507 38.3881 27.526L38.3877 27.5235C38.0472 25.5412 37.1158 23.7395 35.6795 22.3032C34.2441 20.8678 32.4422 19.928 30.4574 19.5947Z" fill="#023440" stroke="#E0BE74"/>
<path id="Vector_3" d="M45.4677 27.0822L45.4677 27.0822L45.4684 27.0858C45.5124 27.333 45.3426 27.5688 45.1018 27.608C45.039 27.6159 45.0247 27.6176 45.0062 27.6176C44.7762 27.6176 44.5825 27.4564 44.545 27.2317L44.5448 27.2303C43.9604 23.7831 42.3324 20.6392 39.8343 18.1411L39.8338 18.1406C37.3368 15.6509 34.194 14.0156 30.7468 13.4309C30.4872 13.3846 30.318 13.147 30.358 12.888C30.4063 12.6279 30.649 12.4642 30.8896 12.507L30.8932 12.5077C34.5362 13.1288 37.8508 14.845 40.4906 17.4848C43.1304 20.1246 44.8466 23.4392 45.4677 27.0822Z" fill="#023440" stroke="#E0BE74"/>
</g>
</g>
</svg>
