<svg width="36" height="55" viewBox="0 0 36 55" fill="none" xmlns="http://www.w3.org/2000/svg">
<path d="M31.9794 44.6365V42.7347C31.9794 39.7053 30.2912 36.9819 27.5746 35.6268L22.4173 33.0553V23.4501C22.4173 20.9179 21.237 18.5992 19.262 17.115C19.3651 16.5554 19.7082 16.0848 20.1544 15.9367C23.4149 14.8547 25.6046 11.8242 25.6046 8.39547C25.6046 3.48383 21.2043 -0.237062 16.3094 0.556768C12.524 1.17005 9.66808 4.68697 9.66808 8.7357V14.1077C5.69607 18.2992 3.29366 23.9782 3.29366 30.1009V39.0779C3.29366 41.457 3.95893 43.7338 5.20067 45.6981C2.22286 46.8501 0.106445 49.7386 0.106445 53.1102V54.6995H30.3854C33.0214 54.6995 35.1666 52.5602 35.1666 49.9315C35.1676 48.8434 34.8714 47.7756 34.3099 46.8428C33.7484 45.9099 32.9427 45.1472 31.9794 44.6365V44.6365ZM26.4578 38.6384C27.9058 39.4956 28.7918 41.0352 28.7918 42.7347V43.488L25.1817 42.2876L26.4578 38.6384ZM12.8557 8.7357C12.8557 6.22875 14.5606 4.06077 16.8215 3.69405C19.8796 3.19743 22.4173 5.54459 22.4173 8.39547C22.4186 9.39675 22.1033 10.373 21.5165 11.1854C20.9296 11.9978 20.101 12.6051 19.1483 12.921C17.8904 13.3383 16.9127 14.3101 16.4126 15.5447L12.8557 13.7708V8.7357ZM6.48087 30.1009C6.48087 25.1086 8.29365 20.3931 11.6074 16.7028L16.587 19.1854C18.2176 19.9978 19.2301 21.633 19.2301 23.4502V35.0196L23.5873 37.193L22.158 41.2832L16.0428 39.2496V24.2896H12.8556V41.5406L17.683 43.1457C15.5574 45.4991 12.1925 46.4464 9.05518 45.4039L8.95425 45.37C7.35735 43.6521 6.48087 41.4333 6.48087 39.0778V30.1009ZM30.3854 51.5208H3.56669C4.19882 49.7418 5.8617 48.446 7.83543 48.3484C7.97694 48.384 9.47175 49.0043 11.6509 49.0043C15.2851 49.0043 18.7562 47.2539 20.8981 44.214L30.0454 47.2548C30.6089 47.4417 31.0991 47.8009 31.4462 48.2814C31.7934 48.7618 31.98 49.3392 31.9795 49.9315C31.9795 50.8077 31.2645 51.5208 30.3855 51.5208H30.3854Z" fill="#E0BE74"/>
</svg>
