<svg width="56" height="47" viewBox="0 0 56 47" fill="none" xmlns="http://www.w3.org/2000/svg">
<path d="M44.5549 0.844409L38.7864 3.1458L37.6589 0.574219L35.0995 0.850767C32.5315 1.12721 30.2951 2.05264 28.1566 3.73682C26.0177 2.0485 23.797 1.12392 21.2643 0.850661L18.7041 0.574219L17.5774 3.1458L11.8076 0.844409L0.984375 26.0313L7.44719 28.4894V46.7707L28.1553 36.4445L48.8635 46.7707V28.5063L55.3794 26.0321L44.5549 0.844409ZM10.6331 41.6298V29.7022L24.2008 34.8642L10.6331 41.6298ZM26.5626 32.3613L5.21943 24.2411L13.5112 4.94526L16.2996 6.05834L9.17731 22.3041L26.5625 28.9724L26.5626 32.3613ZM26.5626 25.5673L14.5644 20.9655C16.6141 19.9208 19.0481 19.7855 21.2696 20.687L26.5625 22.9978L26.5626 25.5673ZM26.5626 19.5294L22.493 17.7529C19.972 16.7236 17.2524 16.6528 14.7845 17.445L20.6865 3.98466C21.0144 4.06794 23.5426 3.98762 26.5626 6.54341V19.5294ZM29.7481 6.54543C32.7117 4.05014 35.5092 4.02736 35.6773 3.98476L41.5549 17.3928C39.2293 16.6536 36.7007 16.7533 34.2509 17.7529L29.7481 19.5918V6.54543ZM29.7481 23.0256L35.4572 20.6941C37.616 19.812 39.8688 19.9275 41.8238 20.9527L29.7481 25.5705V23.0256ZM45.6776 41.6297L32.1132 34.8654L45.6776 29.7156V41.6297ZM29.7481 32.3634V28.9731L47.1864 22.3053L40.063 6.05834L42.8518 4.94537L51.1435 24.2403L29.7481 32.3634Z" fill="#023440"/>
</svg>
