<?xml version="1.0" encoding="utf-8"?>
<!-- Generator: Adobe Illustrator 27.3.1, SVG Export Plug-In . SVG Version: 6.00 Build 0)  -->
<svg version="1.1" id="Layer_1" xmlns="http://www.w3.org/2000/svg" xmlns:xlink="http://www.w3.org/1999/xlink" x="0px" y="0px"
	 viewBox="0 0 290 65" style="enable-background:new 0 0 290 65;" xml:space="preserve">
<style type="text/css">
	.st0{fill:#E0BE74;}
</style>
<g>
	<g>
		<path class="st0" d="M11.4,64.8c-0.4,0.1-0.3,0-0.7,0.1C9,58.5,5.5,53,3.3,46.9c-1.5-4.2-1.6-8.1,1.5-11.7c0.8-1,1.8-1.8,2.8-2.6
			c0.6-0.4,0.9-1,1.3-1.7c1.8-3.7,4-7,6.9-9.9c0.4-0.4,0.9-0.7,1.4-1c0.9-0.5,1.7-0.4,2.4,0.3c0.7,0.7,1.3,1.4,2.1,2.1
			c-0.1-3.4,1.2-5.8,3.8-6.9c1.6-0.7,3.2-0.6,4.8-0.2c3.1,0.8,6.2,1.8,9.3,2.6c1.9,0.5,3.8,0.9,5.7,0.8c0.8,0,1.1,0.3,0.6,1
			c0,0.1-0.1,0.1-0.1,0.2c-0.9,2-2.2,3.5-4.7,4c-2.3,0.5-4.4,1.8-6.5,2.9c-2.7,1.4-5.5,2.5-8.6,2.7c-0.5,0-0.9,0-0.7,0.7
			c1.3,4.3,0.6,8.5-0.4,12.8c-0.3,1.2-0.4,2.4-0.2,3.6c0.6,3.6,3.1,5.1,6.9,4.1c2.3-0.6,4.3-1.8,6.2-3.3c2-1.5,3.9-3.3,5.8-5
			c0.8-0.7,0.8-1.3,0.5-2.2c-0.7-1.9-1.7-3.7-2.6-5.6c-0.4-0.9,0.1-3.6,0.9-4.1c0.4-0.3,0.6,0.1,0.8,0.3c0.7,1,1.3,2,2.1,2.9
			c1.2,1.6,3.4,2,5,1c0.7-0.4,1-1,1-1.8c0.1-3.7-0.9-7.4-1.3-11c-0.6-5.3-1.7-10.5-2.5-15.7c-0.1-0.5-0.1-1-0.3-1.4
			c-0.7-1.3,0-2.3,0.4-3.4c0.2-0.4,0.5-0.5,0.7,0c1.1,2,2.2,4,3.2,6c0.2,0.4,0.3,0.9,0,1.2c-0.4,0.3-0.6-0.3-0.9-0.5
			c-0.2-0.1-0.4-0.3-0.8-0.7c0.2,1.4,0.3,2.5,0.5,3.7c0.9,5.7,1.8,11.4,2.6,17.2c0.3,2,0.3,4.1-0.2,6.1c-0.3,1.4-0.9,2.6-2.1,3.5
			c-0.7,0.5-1.1,1.2-1.4,1.9c-0.7,1.7-1.1,3.5-1.4,5.3c-0.5,4.2,3.5,7.2,7.4,5.6c2.6-1.1,4.7-3,6.8-4.8c4.2-3.8,8.1-8,12.7-11.5
			c1.2-0.9,2.4-1.8,3.7-2.6c0.7-0.4,0.9-0.7,0.1-1.3c-1.1-0.7-2-1.6-3-2.5c-1-1-1.6-2.2-1.8-3.6c-0.3-3.1,1.5-5.2,4.8-5.2
			c4.9-0.1,9.8,0.6,14.6,1.7c1.9,0.4,3.8,1,5.7,1.4c0.9,0.2,0.9,0.6,0.5,1.4c-1.2,2.2-2.8,3.6-5.3,4.4c-3,0.9-5.8,2.3-8.7,3.5
			c-0.8,0.3-1,0.6-0.7,1.5c0.8,1.8,1.1,3.7,1.5,5.6c0.2,0.7,0,1.1-0.8,1c-0.3,0-0.7,0-1,0c-2.9-0.3-4-1.8-3.6-4.6
			c0-0.3,0.3-0.6,0-0.8c-0.2-0.1-0.5,0.2-0.7,0.3c-0.9,0.4-1.3,1.1-1.6,2c-0.7,2.6-1.4,5.2-1.6,7.8C76.8,46,77,47.6,77.8,49
			c1.1,1.8,2.8,2.2,4.7,2.1c3.1-0.2,5.6-1.8,8-3.5c2.1-1.5,3.9-3.3,5.8-5.1c0.5-0.5,0.6-1,0.4-1.7c-0.6-1.9-1.6-3.7-2.5-5.4
			c-0.6-1.1-0.5-2.9,0.2-4c0.8-1.3,1-0.4,1.2-0.1c0.8,1.2,1.6,2.4,2.7,3.4c1.5,1.3,3.6,1.3,5,0.1c0.4-0.4,0.6-0.7,0.5-1.4
			c-0.9-8.7-2.5-17.2-3.7-25.8c-0.1-0.7-0.2-1.4-0.5-2.1c-0.6-1.3-0.1-2.4,0.4-3.5c0.2-0.6,0.5-0.7,0.9-0.1c1,2,2,3.9,3,5.9
			c0.1,0.2,0.1,0.5,0.1,0.8c0,0.2,0,0.4-0.2,0.5c-0.2,0.1-0.3-0.1-0.5-0.2c-0.3-0.3-0.6-0.6-1.1-1.1c0.3,2.4,0.6,4.4,1,6.5
			c0.8,5.1,1.6,10.2,2.3,15.3c0.3,2.3,0,4.7-1.1,6.8c-1.2,2.3-2.4,3.1-5,2.8c-0.8-0.1-1,0.1-1,0.9c0,1.1-0.1,2.2-0.2,3.3
			c-0.1,1.2-0.5,2.2-1.4,3.1c-2.7,2.9-5.5,5.6-9.2,7.4c-2.1,1-4.2,1.5-6.5,1.2c-1.3-0.2-2.4-0.8-3.2-1.9c-1.9-2.5-2.3-5.3-1.9-8.2
			c0.3-2.8,1-5.6,1.7-8.5c-1.1,1-2.3,2-3.4,3c-4.2,4.1-8.3,8.2-12.8,12c-2,1.7-4.2,3.2-6.8,3.9c-2.3,0.7-4.9-0.1-6.3-2
			c-2.5-3.3-2-6.9-0.9-10.6c0.3-1,0.6-1.9,1-2.8c0.2-0.6,0.1-0.8-0.6-0.8c-2-0.1-2-0.1-2.1,1.9c0,0.5,0,1,0,1.5
			c-0.1,1.6-0.5,3-1.8,4.1c-3.2,2.8-6.4,5.7-10.4,7.4c-1.4,0.6-2.8,1-4.3,0.9c-2.6-0.2-4.3-1.7-5.2-4.1c-1.1-2.7-0.8-5.5-0.1-8.2
			c0.8-3.4,1.6-6.7,1.2-10.2c-0.1-0.6-0.2-1.3-0.2-1.9c-0.1-0.5-0.3-0.9-0.8-1.1c-1.7-0.7-3-1.9-4.2-3.2c-0.6-0.7-1.3-1.4-2-2.1
			c-0.7-0.7-1.4-0.7-2.1,0c-1.3,1.3-2.2,2.9-3.1,4.5c-0.2,0.3-0.4,0.7-0.5,1c-0.3,0.7-0.9,1.3-0.9,2c-0.1,0.8,0.9,0.9,1.4,1.4
			c1.9,2,2.6,4.5,2.8,7.1c0,0.3,0,0.7,0,1c0,1.4-0.3,1.7-1.6,1.1c-1.2-0.6-2.4-1.2-3.5-1.9c-1.2-0.7-2-1.8-2.2-3.1
			c-0.1-0.9-0.5-1-1.2-0.5c-1,0.7-1.9,1.4-2.5,2.5c-0.8,1.3-0.9,2.5-0.3,3.9c2,4.9,4.4,9.6,6,14.6C10.7,60,11.1,62.4,11.4,64.8z
			 M38.1,21.6c-2.8-0.7-5.5-1.5-8.3-2.2c-1.4-0.4-2.9-0.4-4.3,0c-1.8,0.5-2.5,1.9-2.1,3.9c0.4,1.8,1.6,2.7,3.5,2.5
			C30.9,25.4,34.4,23.2,38.1,21.6z M92.3,25.4c-3.4-1.4-6.8-2-10.1-2.2c-2-0.1-4-0.2-5.9,0.2c-0.3,0.1-0.9,0.1-1,0.4
			c-0.1,0.4,0.4,0.6,0.6,0.8c1.1,0.8,2.1,1.7,3.2,2.4c1,0.7,1.8,2.2,2.9,2.2c1.1,0.1,2.3-0.9,3.5-1.3C87.8,27.2,89.9,26.3,92.3,25.4
			z"/>
		<path class="st0" d="M288.6,36.5c-0.1,1.5-0.3,3.7-0.4,5.2c-0.2,0.5-0.5,1.1-0.9,1.6c-1.8,2.4-4.7,2.3-6.3-0.2
			c-0.2-0.4-0.5-0.8-0.8-1.3c-0.6,1.6-1.4,3.1-3.2,3.2c-1.9,0.1-2.8-1.1-3.5-2.8c-1,1.6-2.2,2.9-4,3.2c-2.7,0.5-4.8-0.5-4.9-3.5
			c0-1.1-0.6-0.7-1.1-0.5c-4.4,1.4-8.9,2.5-13.4,3.6c-7.1,1.6-14.2,2.9-21.5,3.7c-4.3,0.5-8.6,0.8-12.9,1c-4.2,0.2-8.5,0.2-12.7,0.2
			c-7.6-0.1-15.3-0.8-22.8-2.1c-5.5-0.9-11.1-1.8-16.4-3.7c-1.1-0.4-2.2-0.8-3.3-1.4c-1-0.5-1.1-0.2-1.1,0.7c0,1.1-0.1,2.2-0.2,3.3
			c-0.1,0.9-0.4,1-1.2,0.5c-1.7-1.2-2.7-2.9-2.8-5c0-0.9,0.2-2.1-0.9-2.5c-1.1-0.5-2.3-0.3-3.3,0.4c-2,1.4-3.5,3.2-5.1,5
			c-1.8,2-3.5,4.1-5.6,5.7c-0.4,0.3-0.7,0.5-1.1,0.7c-2.3,1.3-4.5,0.5-5.6-1.9c-0.8-1.7-0.9-3.4-0.4-5.1c0.2-0.8,0.1-1.1-0.8-1
			c-3.1,0.4-4.8-1.4-5.8-4.3c-0.2,0.7-0.3,1.2-0.5,1.7c-0.8,2.5-2.9,4-5.6,3.9c-2.3,0-4.1-2.1-4.4-4.8c-0.1-1.7,0-3.4,0.3-5.1
			c0.2-0.9,0.2-1.8,0.2-3.1c-0.7,1-1,1.9-1.2,2.8c-0.5,2.2-0.9,4.4-1.4,6.5c-0.2,0.9-0.5,1.7-1.1,2.4c-0.8,1-2.3,1-3.1,0
			c-1.3-1.6-1.8-3.5-1.9-5.5c-0.2-2.1,0.1-4.2,0.2-6.3c0-0.3,0-0.8,0.5-0.7c0.4,0.1,0.3,0.5,0.3,0.8c-0.2,2.2-0.2,4.3,0.3,6.4
			c0.2,0.7,0.4,1.4,0.9,2c0.8,0.8,1.9,0.6,2.4-0.4c0.8-1.6,1.1-3.4,1.6-5.1c0.6-2.1,1.1-4.1,2.6-5.7c0.5-0.5,1-1.4,1.7-1.2
			c0.6,0.2,0.2,1.2,0.3,1.8c0.1,1.8-0.4,3.5-0.6,5.2c-0.1,1.3-0.2,2.6,0.1,3.8c0.4,1.4,1.8,2.4,3.3,2.2c2.7-0.4,4.7-3.2,4.2-5.9
			c-0.4-2-0.7-4.1-1.1-6.1c-0.3-1.4,0.3-2.6,1-3.9c1,1.4,1.3,2.9,1.6,4.3c0.3,2,0.6,4,0.9,6.1c0.2,1.2,0.7,2.3,1.4,3.3
			c1.1,1.5,3,1.9,4.5,1.1c0.8-0.4,1.1-1,0.6-1.9c-1.7-3.2-2.7-6.7-3.6-10.2c-0.3-1,0.3-1.9,0.6-2.8c0.2-0.5,0.5-0.2,0.7,0.1
			c0.8,1.2,1.6,2.4,2.3,3.7c0.4,0.7,0.1,1.1-0.8,1.2c0.8,1.9,1.6,3.7,2.1,5.6c0.7,2.6,0.7,5.2-1,7.5c-0.8,1.1-0.9,2.6-0.6,4
			c0.3,1.4,2,2,3.5,1.3c1.7-0.8,3.1-2.1,4.4-3.5c1.4-1.5,2.7-3.1,4-4.7c1.2-1.4,2.5-2.6,4.1-3.6c1.4-0.9,2.9-1.2,4.4-0.3
			c0.8,0.5,1.1,0.2,1.4-0.5c0.5-1.3,0.6-1.3,1.6-0.3c1.5,1.5,3.4,2.4,5.4,3.2c5.7,2.3,11.7,3.7,17.8,4.7c5.2,0.9,10.4,1.4,15.6,1.7
			c2.4,0.2,4.8,0.2,7.3,0.3c4.6,0.2,9.2,0.1,13.9-0.1c4.3-0.2,8.6-0.6,12.9-1c8.2-0.8,16.4-2.2,24.5-3.9c3.5-0.7,6.9-1.5,10.3-2.5
			c0.8-0.2,1.2-0.3,1.1,0.8c-0.3,2.7,1.8,4.1,4.3,3c1.6-0.7,2.7-2.1,4-3.2c0.3-0.3,0.6-0.8,1.1-0.7c0.5,0.2,0.3,0.8,0.3,1.2
			c0,0.6,0.1,1.1,0.4,1.6c0.5,0.8,1.6,0.9,2.3,0.3c0.6-0.5,1-1.1,1.5-1.8c0.4-0.6,0.8-1.2,1.2-1.7c0.2-0.2,0.4-0.5,0.7-0.5
			c0.4,0.1,0.3,0.5,0.3,0.8c0,1.5,0.6,2.6,1.8,3.4c0.8,0.6,1.7,0.7,2.5,0.2c0.8-0.5,0.6-1.4,0.4-2.1c-0.7-2.4-1.9-4.5-3.1-6.6
			c-1.5-2.6-2.7-5.3-3.9-8c-0.5-1.2,0.1-2.2,0.3-3.4c0.1-0.3,0.4-0.3,0.6-0.1c1.2,1.2,2.3,2.4,3.4,3.7c0.2,0.2,0.3,0.6,0.1,0.8
			c-0.4,0.6-0.9-0.2-1.5,0.1C285.2,29.2,287.5,32.5,288.6,36.5z"/>
		<path class="st0" d="M108.9,7.8c0.4,2.6,0.8,5,1.2,7.5c0.8,4.8,1.7,9.7,2.3,14.5c0.3,2.7,0.4,5.5-0.5,8.2
			c-0.1,0.4-0.2,0.9-0.7,0.9c-0.5-0.1-0.4-0.6-0.3-0.9c0.2-5.8-1.1-11.4-1.9-17.1c-0.6-4.7-1.4-9.3-2.1-14c-0.1-0.6-0.2-1.2-0.4-1.7
			c-0.5-1.3,0.1-2.3,0.5-3.4c0.2-0.5,0.5-0.4,0.7,0c1,2,2,4,3,6c0.2,0.4,0.3,0.9-0.1,1.2c-0.4,0.3-0.6-0.3-0.9-0.5
			C109.4,8.1,109.3,7.8,108.9,7.8z"/>
		<path class="st0" d="M138.1,7.6c0.1,2.2,0.5,4.2,0.8,6.1c0.8,5.3,1.8,10.5,2.5,15.8c0.4,2.8,0.1,5.6-0.5,8.4
			c-0.1,0.4-0.1,1-0.6,0.9c-0.6-0.1-0.3-0.6-0.3-1c0-2.9-0.3-5.7-0.7-8.5c-0.9-6.3-1.9-12.5-2.8-18.8c-0.3-2-0.5-4-1.1-5.9
			c-0.4-1.2,0.3-2.1,0.8-3c0.2-0.5,0.5,0,0.7,0.2c1,1.8,1.9,3.7,2.9,5.5c0.2,0.5,0.5,1.1,0.1,1.4c-0.5,0.4-0.7-0.4-1-0.7
			C138.6,8,138.5,7.9,138.1,7.6z"/>
		<path class="st0" d="M56.6,7.8c0.5,3,1,6,1.3,9c0.7,5.5,2,10.9,2.1,16.4c0,1.7-0.2,3.3-0.7,4.9c-0.1,0.3-0.2,0.8-0.6,0.7
			c-0.5,0-0.4-0.5-0.3-0.8c0.2-7.9-1.7-15.5-2.8-23.2c-0.4-3-0.8-6.1-1.5-9.1c-0.3-1.4-0.5-2.7,0.2-3.9c0.1-0.2,0.1-0.5,0.4-0.5
			c0.3,0,0.4,0.2,0.5,0.4c1,1.9,2,3.9,3,5.9c0.1,0.2,0.1,0.5,0.1,0.8c0,0.2,0,0.4-0.2,0.5c-0.2,0.1-0.3-0.1-0.5-0.2
			C57.3,8.3,57,8,56.8,7.7C56.7,7.7,56.6,7.8,56.6,7.8z"/>
		<path class="st0" d="M40.6,37.1c-1.3,3.2-2.6,6.4-6.4,7.4c-1.7,0.5-3.4-0.1-4.2-1.2c-0.9-1.3-0.7-3.1,0.4-4.6
			c0.7-0.9,1.6-1.7,2.5-2.3c0.2-0.1,0.6-0.2,0.5-0.5c-0.1-0.3-0.5-0.3-0.8-0.4c-0.6-0.1-1.2,0.1-1.7,0.5c-0.2,0.1-0.4,0.3-0.6,0.1
			c-0.2-0.2-0.1-0.4-0.1-0.6c0.2-1,1.3-2.1,2.4-2.3c1.6-0.2,3.2,0,4.7,0.5c0.6,0.2,0.8,0.5,0.2,0.9c-1,0.8-1.8,1.8-3,2.2
			c-1.2,0.5-2.3,1.4-3.1,2.5c-0.9,1.1-0.6,2.1,0.8,2.6c2.2,0.7,4.7-0.3,6.3-2.5C39.2,38.5,39.7,37.6,40.6,37.1z"/>
		<path class="st0" d="M263.6,46.7c-0.2,0.7-0.2,1.5-0.6,2.2c-0.6,1.1-1.6,1.4-2.6,0.6c-0.5-0.4-0.7-0.3-1.1,0
			c-1.4,1.2-1.8,1.3-3.4,0.4c-0.8-0.5-1.6-0.5-2.4-0.2c-2.4,1-4.8,2-7.3,2.9c-3.1,1.2-6.3,1.6-9.6,1.8c-0.2,0-0.4,0-0.6,0
			c-0.3,0-0.6-0.1-0.6-0.4c0-0.4,0.4-0.3,0.6-0.3c1.5,0,3-0.3,4.5-0.6c3.1-0.8,5.9-2,8.7-3.4c1.7-0.9,3.4-1.9,5.2-2.5
			c0.9-0.3,1.6-0.2,2.4,0.5c1.3,1.2,1.7,1.1,2.7-0.4c0.1-0.2,0.3-0.5,0.4-0.6c0.3-0.3,0.7-0.4,0.7,0.2c0.1,0.4,0.3,0.8,0.7,0.8
			c0.5,0,0.6-0.4,0.8-0.8c0.1-0.1,0.1-0.3,0.2-0.4c0.2-0.3,0.2-0.8,0.6-0.6C263.7,45.9,263.5,46.3,263.6,46.7z"/>
		<path class="st0" d="M131.1,5.7c0.2-0.7,0.5-1.4,0.7-2c0.1-0.2,0.2-0.5,0.1-0.7c-0.2-0.3-0.6-0.1-0.8,0c-4.1,1.4-8.1,3.2-11.8,5.5
			c-2.6,1.5-4.9,3.3-7.2,5.2c-0.2,0.2-0.5,0.6-0.8,0.4c-0.3-0.2-0.1-0.6-0.1-0.9c0.1-0.7,0.4-1.3,1-1.8c3.5-3,7.5-5.2,11.7-7.2
			c2.8-1.4,5.6-2.6,8.7-3.3c1.1-0.2,1.3-0.1,1,0.9C133,3.3,132.3,4.6,131.1,5.7z"/>
		<path class="st0" d="M94.9,8c0.1-1.2,0.9-2,0.8-3.2C88.8,7,82.9,10.7,77.4,15.5c-0.1-1.2,0.1-2.1,0.8-2.8c2-1.9,4.2-3.4,6.6-4.8
			c3.6-2,7.3-3.9,11.3-5c1.2-0.4,1.4-0.2,1.1,1.1C96.8,5.5,96.3,6.8,94.9,8z"/>
		<path class="st0" d="M94.2,54.2c0.5-0.7,1.2-0.6,1.7-0.8c3.3-1,6.4-2.1,9.1-4.3c0.6-0.5,1.4-0.9,0.5-2c-0.6-0.7,0.1-1.5,0.6-2.1
			c0.3-0.4,0.8-0.6,0.8-1.3c0-0.5,0.5-0.4,0.8-0.2c1.1,0.4,2.6,2.8,2.5,3.9c-0.1,1.2-0.8,1.8-1.9,1.4c-0.9-0.3-1.3,0-1.8,0.7
			c-2.1,2.9-5.1,4.2-8.5,4.7C96.7,54.3,95.6,54.6,94.2,54.2z"/>
		<path class="st0" d="M148,35.6c-0.1-1.6-0.3-3.2-0.7-4.7c-0.3-1.4-0.6-2.8-0.8-4.3c-0.4-2.3,0.1-3.2,2.2-4.1
			c0.3-0.1,0.6-0.2,0.8-0.5c-0.5-0.3-0.9,0-1.3,0.2c-0.2,0.1-0.4,0.2-0.5,0.1c-0.2-0.1-0.2-0.4-0.1-0.6c0.4-0.9,0.8-1.8,1.5-2.5
			c0.4-0.4,0.8-0.4,1.3-0.2c1.2,0.4,2,1.2,2.9,2c0.2,0.2,0.4,0.4,0.2,0.7c-0.6,0.9-0.9,2.1-2.2,2.4c-0.8,0.2-1.6,0.5-2.3,0.7
			c-1.4,0.5-1.6,1-1.2,2.4c0.7,2.4,0.8,4.9,0.7,7.4C148.4,34.9,148.6,35.3,148,35.6z"/>
		<path class="st0" d="M16.5,47.6c-0.7-0.6-1.1-0.2-1.5,0.1c-0.2,0.1-0.4,0.3-0.6,0.2c-0.3-0.2-0.2-0.5-0.2-0.7
			c0.4-2.1,2.1-2.9,4-1.8c0.2,0.1,0.3,0.2,0.5,0.3c0.5,0.5,1.7,0.7,1.4,1.6c-0.4,1.1-0.9,2.2-2.4,2.4c-1,0.1-1.9,0.4-2.8,0.9
			c-0.7,0.4-1,0.9-0.7,1.8c0.8,2.9,1.2,5.8,0.5,8.8c-0.4-2.3-0.8-4.6-1.3-6.9c-0.2-1-0.4-2-0.5-3c-0.1-1.4,0.5-2.4,1.9-2.9
			C15.4,48.1,15.9,47.9,16.5,47.6z"/>
		<path class="st0" d="M273,17.7c0.4-1.8,0.7-3.5,1.4-5.1c0.4-0.8,0.8-1.8,1.9-1.4c1.1,0.3,1.1,1.4,1,2.4c0,0.5-0.3,0.9-0.5,1.4
			c-0.2,0.4-0.5,0.7-0.9,0.2c-0.8-0.7-1.1-0.1-1.4,0.5c-0.7,1.3-0.7,2.8-0.9,4.2c-0.1,0.4-0.1,0.8-0.5,1.4c-0.5-1-1-1.9-1.4-2.8
			c-0.2-0.4-0.3-0.8-1-0.4c-0.9,0.5-1.8,0.2-2.2-0.6c-0.4-0.8-0.2-2.7,0.4-3.1c0.7-0.5,1.6-0.3,2.4,0.5
			C272.1,15.6,272.5,16.6,273,17.7z"/>
		<path class="st0" d="M65,15.3c-0.5-1-1-1.9-1.4-2.9c-0.2-0.4-0.4-0.6-0.9-0.3c-0.8,0.4-1.7,0.3-2.2-0.6c-0.5-0.9-0.2-2.7,0.5-3.2
			c0.7-0.4,1.7-0.2,2.4,0.6c0.7,0.7,1,1.6,1.5,2.7c0.4-1.4,0.6-2.5,1-3.6c0.2-0.8,0.6-1.6,1.1-2.3c0.3-0.4,0.7-0.7,1.2-0.6
			c0.5,0.1,0.7,0.5,0.8,1c0.2,0.7,0.2,1.5,0,2.2c-0.2,0.6-0.3,1.2-1.2,0.6c-0.7-0.4-1,0.3-1.2,0.7c-0.6,1.4-0.8,2.8-1,4.3
			C65.3,14.4,65.4,14.9,65,15.3z"/>
		<path class="st0" d="M16.7,30.9c1.1,0.5,2.2,1,3.2,1.5c0.4,0.2,0.1,0.7-0.1,1c-0.9,1.9-0.9,2,1,2.9c1,0.4,1.2,0.9,0.7,1.8
			c-1.2,2.2-1.1,2.2-3.4,1.2c-1.5-0.7-1.5-0.7-0.8-2.1c0.6-1.4,0.6-1.4-0.7-2.1c-2-1-1.8-0.7-0.9-2.7C15.8,31.9,15.9,31.2,16.7,30.9
			z"/>
		<path class="st0" d="M120.9,55.6c-0.5-1-0.9-1.9-1.3-2.8c-0.2-0.5-0.4-0.9-1-0.3c-0.3,0.4-0.8,0.3-1.3,0.1
			c-0.9-0.3-1.2-0.9-1.2-1.8c0-0.9,0-1.8,1-2.3c0.9-0.4,1.6,0,2.2,0.7c0.6,0.7,1,1.6,1.6,2.7c0.3-1.3,0.6-2.4,0.8-3.4
			c0.2-0.8,0.5-1.6,1-2.2c0.4-0.5,0.8-0.9,1.5-0.8c0.7,0.1,0.8,0.8,0.9,1.4c0.1,0.7,0,1.3-0.3,1.9c-0.2,0.5-0.5,0.9-1.2,0.5
			c-0.7-0.4-1.1,0.1-1.4,0.7c-0.6,1.3-0.6,2.7-0.9,4.1C121.3,54.7,121.3,55.1,120.9,55.6z"/>
		<path class="st0" d="M149,18c-0.5-0.9-1-1.8-1.4-2.7c-0.2-0.4-0.3-0.5-0.8-0.2c-1.1,0.7-2.1,0.2-2.5-1c-0.2-0.7-0.1-1.4,0.2-2.1
			c0.4-0.8,1-1.1,1.9-0.8c0.8,0.3,1.2,0.9,1.6,1.6c0.3,0.5,0.5,1,0.9,1.7c0.3-1.2,0.6-2.2,0.8-3.2c0.2-0.9,0.6-1.8,1.1-2.5
			c0.3-0.4,0.7-0.7,1.2-0.6c0.6,0.1,0.8,0.5,0.9,1c0.3,0.9,0.2,1.7-0.2,2.5c-0.2,0.4-0.4,0.7-0.8,0.4c-0.9-0.5-1.3,0.1-1.6,0.8
			c-0.5,1.1-0.6,2.2-0.8,3.4c-0.1,0.6-0.2,1.2-0.3,1.8C149.2,18,149.1,18,149,18z"/>
		<path class="st0" d="M124.5,13.1c0.7,2.1,1.4,4,0.9,6c-0.3,1.3-1.4,1.8-2.6,1.1c-0.4-0.2-0.7-0.5-1.1,0.1c-0.4,0.7-1.1,1-1.9,0.7
			c-0.9-0.3-1-1.1-1.2-1.9c-0.1-0.5,0.5-1.4-0.6-1.6c-0.2,0-0.1-0.6,0.1-0.9c0.4-0.7,0.9-1.3,1.5-1.9c0.3,0.8,0,1.5,0.2,2.2
			c0.1,0.6,0,1.6,0.9,1.4c0.8-0.1,0.7-1,0.6-1.7c-0.1-0.7-0.6-1.5,0-2.2c0.2-0.2,0.3-0.6,0.7-0.5c0.3,0.1,0.4,0.4,0.4,0.6
			c0.2,0.5,0.3,1,0.3,1.5c0,0.4,0,0.8,0.2,1.2c0.2,0.3,0.4,0.6,0.8,0.5c0.5-0.1,0.5-0.4,0.4-0.8c0-0.4-0.1-0.9-0.3-1.3
			C123.6,14.9,123.8,14.1,124.5,13.1z"/>
		<path class="st0" d="M37.8,9.3c-0.4,0.2-0.6,0.4-0.8,0.3c-0.3-0.1-0.2-0.5-0.1-0.7c0.3-0.9,0.9-1.6,1.6-2.2C38.9,6.3,39,6.7,39,7
			c0,0.7,0,1.4,0,2.1c0,0.6,0.1,1.2,0.9,1.1c0.7-0.1,0.8-0.7,0.7-1.3c-0.1-0.5-0.2-1-0.3-1.5c-0.1-0.3-0.1-0.6,0-0.9
			c0.1-0.3,0.2-0.8,0.6-0.9c0.5,0,0.5,0.5,0.6,0.8c0.2,0.7,0.4,1.5,0.4,2.3c0,0.5,0.2,1,0.7,0.9c0.6,0,0.5-0.7,0.4-1.1
			c0-0.5-0.2-1-0.3-1.5c-0.1-0.3-0.1-0.6-0.1-0.9c0.1-0.4,0.3-1.1,0.8-1.1c0.4,0,0.5,0.6,0.5,1c0.3,1.5,0.7,2.9,0.3,4.4
			c-0.4,1.3-1.2,1.8-2.4,1.3c-0.6-0.2-0.9-0.1-1.3,0.4c-0.5,0.6-1.2,0.8-1.9,0.5c-0.7-0.2-0.9-0.9-1-1.5
			C37.7,10.7,37.8,10.1,37.8,9.3z"/>
		<path class="st0" d="M93.2,9.5c0.5,2,1.2,4,0.5,6.1c-0.3,1.1-1.3,1.3-2.4,0.8c-0.5-0.2-0.8-0.4-1.1,0.1c-0.5,0.6-1.1,1-1.9,0.7
			c-0.8-0.3-1.1-1.1-1.1-1.9c0-0.3,0-0.7,0-1c0-0.1,0-0.3-0.1-0.4c-0.6,0.2-0.8-0.1-0.6-0.6c0.3-0.8,0.8-1.5,1.5-2
			c0.4-0.3,0.4,0.2,0.4,0.4c0,0.7,0,1.4,0,2.1c0,0.5,0.3,1,0.9,0.9c0.6-0.1,0.8-0.6,0.7-1.1c-0.1-0.6-0.2-1.2-0.3-1.8
			c-0.1-0.4-0.1-0.7,0.1-1.1c0.2-0.2,0.3-0.6,0.6-0.5c0.4,0,0.4,0.4,0.5,0.7c0.1,0.7,0.3,1.3,0.3,2c0.1,0.5,0.1,1.2,0.8,1.1
			c0.7-0.1,0.5-0.8,0.3-1.3c-0.3-1-0.6-2,0.2-3c0.1-0.1,0.1-0.3,0.2-0.4C93,9.4,93.1,9.4,93.2,9.5z"/>
		<path class="st0" d="M273.5,24.2c0.1,1.4,0.9,2.3,1.8,3.2c0.9,1,0.6,3.5-0.3,4.5c-0.6,0.7-1.4,0.8-2.3,0.5c-0.9-0.3-1.2-1-1.4-1.9
			c-0.1-0.9,0.2-1.8,0.4-2.6C272.1,26.6,272.7,25.4,273.5,24.2z"/>
		<path class="st0" d="M13.1,8.4c0.2,1.3,0.8,2.3,1.7,3.1c1,0.9,0.9,3.5,0,4.6c-0.7,0.7-1.5,0.8-2.4,0.6c-0.8-0.2-1.2-0.8-1.3-1.6
			C10.9,12.5,11.7,10.4,13.1,8.4z"/>
		<path class="st0" d="M79.6,46.5c0.2-0.6,0.6-0.6,0.9-0.8c2.8-1.7,5.6-3.4,7.7-6c0.7-0.8,1.1-1.8,1.6-2.7c0.3-0.5,0.6-1,1.3-0.9
			c0.6,0.1,0.9,0.7,1.1,1.2c0.1,0.3,0.2,0.6,0.2,0.9c0.1,0.6,0.1,1.1-0.4,1.5c-0.5,0.4-1.1,0.4-1.6,0.1c-0.7-0.4-1-0.2-1.4,0.4
			c-0.6,1-1.3,2-2.1,2.9C85.1,45.3,82.5,46.1,79.6,46.5z"/>
		<path class="st0" d="M141.5,54.5c2-1.2,3.9-2.4,5.7-3.8c1.8-1.4,3.3-3,4.3-5.1c0.3-0.6,0.5-1.4,1.4-1.3c0.8,0.1,1.2,0.8,1.3,1.5
			c0.2,0.7,0.3,1.6-0.3,2.2c-0.4,0.4-0.9,0.3-1.2,0c-1-0.6-1.5-0.1-2,0.7c-1.6,2.9-4,4.8-7.2,5.6C142.8,54.6,142.2,54.7,141.5,54.5z
			"/>
		<path class="st0" d="M62.7,25.8c0.7-0.6,1.5-1.2,2.2-1.9c0.4-0.4,1.1-0.8,0.8-1.4c-0.3-0.5-1,0-1.6,0.1c-0.4,0-0.8,0.6-1.2,0.3
			c-0.3-0.4,0.1-0.9,0.2-1.4c0.4-1.4,1.2-2.3,2.7-2.4c0.9-0.1,1.8-0.3,2.6-0.4c0.5-0.1,0.8,0.1,0.7,0.7c-0.3,2.7-3.3,6.1-5.9,6.7
			C63.1,26,62.9,26,62.7,25.8z"/>
		<path class="st0" d="M1.3,27.8c1.1-1,2.1-1.6,2.8-2.5c0.2-0.3,0.7-0.6,0.5-1c-0.3-0.4-0.8-0.2-1.2-0.1c-0.1,0-0.1,0.1-0.2,0.1
			c-0.5-0.1-1,0.7-1.4,0.3c-0.3-0.4,0.1-1.1,0.3-1.6c0.4-1.3,1.2-2,2.6-2.1c0.9-0.1,1.8-0.3,2.6-0.4C7.7,20.3,8,20.4,8,21.1
			C7.8,23.7,4.4,27.3,1.3,27.8z"/>
		<path class="st0" d="M68.9,31.3c-0.4,0.9-0.8,1.9-1.5,2.7c-0.3,0.4-3.5-1.1-3.5-1.6c0-0.3,1.3-2.9,1.5-3c0.2-0.1,0.4-0.1,0.5,0
			c0.9,0.4,1.8,0.8,2.6,1.2C68.7,30.8,68.9,31,68.9,31.3z"/>
		<path class="st0" d="M283.4,52c-1-0.5-2-0.9-2.9-1.6c-0.2-0.2-0.1-0.5,0-0.7c0.8-2.9,1-2.9,3.7-1.5c1,0.5,1.2,1.1,0.6,2
			c-0.3,0.4-0.4,1-0.6,1.4C284,51.8,283.9,52.1,283.4,52z"/>
		<path class="st0" d="M75.1,14.9c-0.1-2.1,0.2-3.9-0.2-5.8c-0.2-0.8-0.4-1.7-1.1-2.3C72.9,6,73.1,5,73.1,4c0-0.7,0.4-0.8,0.8-0.4
			c0.2,0.2,0.4,0.3,0.6,0.5C76.6,7,76.8,11.4,75.1,14.9z"/>
		<path class="st0" d="M72.4,52.5c0.4,1.9-0.6,3.1-2.5,2.8c-0.7-0.1-1.1-0.5-1.3-1.1c-0.5-1.8,1.2-5.7,3-6.7c0,0.8-0.5,1.3-0.7,2
			c-0.3,0.8-0.7,1.6-0.6,2.6c0,0.4,0,0.9,0.5,1.1c0.5,0.2,0.9,0,1.3-0.4C72.2,52.6,72.2,52.4,72.4,52.5z"/>
		<path class="st0" d="M129.6,21c-0.3-0.6-0.2-1-0.2-1.4c0.3-2.6,0-5-1.7-7.1c-0.7-0.9-0.4-1.9-0.1-2.7c0.2-0.6,0.6,0,0.8,0.3
			c1.2,1.4,1.9,3.1,2.1,5C130.8,16.9,130.4,18.9,129.6,21z"/>
		<path class="st0" d="M54.8,39.3c-0.3,0.9-0.6,1.8-0.9,2.8c-0.1,0.3-0.2,0.6-0.2,1c-0.1,0.7-0.2,1.4,0.5,1.8
			c0.8,0.4,1.1-0.4,1.7-0.9c0.1,1-0.1,1.8-0.6,2.4c-0.6,0.7-1.3,0.9-2.2,0.6c-0.8-0.3-1.2-0.9-1.2-1.7
			C51.9,42.8,53.1,40.9,54.8,39.3z"/>
	</g>
</g>
</svg>
