<svg width="1920" height="333" viewBox="0 0 1920 333" fill="none" xmlns="http://www.w3.org/2000/svg">
<rect width="1920" height="332" transform="matrix(-1 0 0 1 1920 0)" fill="#023440"/>
<path d="M167 265H729V287.819H167V265Z" fill="#625436"/>
<path d="M167 286H729V333H167V286Z" fill="#625436"/>
<path d="M240 256H660V333H240V256Z" fill="#625436"/>
<path d="M582.968 310.881L448.702 177.231L314.466 310.881" fill="#625436"/>
<path d="M660 333L525.5 220L391 333" fill="#625436"/>
<path d="M516 333L381.485 220L247 333" fill="#625436"/>
<mask id="mask0_2277_47" style="mask-type:luminance" maskUnits="userSpaceOnUse" x="240" y="134" width="423" height="171">
<path d="M240.388 134H663V304.486H240.388V134Z" fill="white"/>
</mask>
<g mask="url(#mask0_2277_47)">
<path d="M659.078 296.879C657.468 298.366 656.385 300.202 656.297 302.97C656.297 303.087 656.297 303.203 656.297 303.32C655.331 303.524 654.394 303.874 653.575 304.34V295.451H654.16V293.849H653.311C653.341 293.47 653.37 293.091 653.37 292.712C653.37 287.408 649.477 283.066 644.354 282.279C644.12 281.754 643.652 281.346 643.067 281.23L642.715 271.03L642.247 281.288C641.749 281.434 641.31 281.813 641.105 282.279C639.203 282.57 637.476 283.357 636.042 284.494C634.812 283.328 633.261 282.483 631.534 282.133C631.534 282.017 631.534 281.9 631.534 281.783C631.417 277.325 628.695 275.285 625.328 273.215C624.099 272.458 623.221 271.933 622.636 271.554C622.636 271.525 622.636 271.525 622.636 271.525C622.636 269.718 621.435 268.203 619.796 267.707C619.621 267.008 619.474 266.367 619.357 265.901C619.357 265.842 619.328 265.813 619.328 265.755C619.504 265.58 619.591 265.347 619.591 265.085C619.591 264.764 619.445 264.502 619.211 264.298H619.123C619.094 264.094 619.064 263.89 619.064 263.657C619.182 263.54 619.24 263.394 619.24 263.219C619.24 262.986 619.123 262.811 618.977 262.695H618.947C618.918 262.52 618.918 262.316 618.889 262.141H618.918C619.006 262.054 619.035 261.937 619.035 261.821C619.035 261.646 618.947 261.5 618.801 261.413C618.801 261.354 618.801 261.296 618.772 261.238C620.177 261.121 621.289 259.955 621.289 258.527C621.289 257.012 620.06 255.788 618.538 255.788C618.45 255.788 618.333 255.788 618.245 255.817C619.328 255.934 620.177 256.866 620.177 257.974C620.177 259.169 619.211 260.159 617.981 260.159C616.869 260.159 615.932 259.314 615.815 258.236C615.815 258.323 615.786 258.44 615.786 258.527C615.786 259.955 616.898 261.121 618.303 261.238C618.303 261.296 618.303 261.354 618.274 261.413C618.128 261.5 618.04 261.646 618.04 261.821C618.04 261.937 618.099 262.054 618.157 262.141H618.186C618.157 262.316 618.157 262.491 618.128 262.695H618.099C617.923 262.811 617.835 263.015 617.835 263.219C617.835 263.394 617.894 263.54 618.011 263.657C617.981 263.89 617.952 264.094 617.952 264.298H617.864C617.63 264.473 617.484 264.764 617.484 265.085C617.484 265.347 617.601 265.58 617.747 265.755C617.689 266.017 617.63 266.367 617.513 266.775C617.455 267.066 617.367 267.387 617.279 267.678C615.64 268.174 614.44 269.718 614.44 271.496V271.525C613.971 271.787 613.386 272.166 612.596 272.633C612.332 272.807 612.039 272.982 611.747 273.157C610.488 273.944 609.288 274.731 608.322 275.634C606.712 277.121 605.629 278.957 605.541 281.725C605.541 281.842 605.541 281.958 605.541 282.075C603.814 282.425 602.263 283.27 601.034 284.435C599.599 283.299 597.872 282.512 595.97 282.221C595.765 281.725 595.355 281.375 594.828 281.23L594.36 270.971L594.009 281.171C593.423 281.288 592.926 281.667 592.721 282.221C591.023 282.483 589.472 283.124 588.154 284.086C585.988 278.49 580.895 274.323 574.778 273.39C574.426 272.516 573.636 271.875 572.67 271.7L572.114 255.205L571.382 271.758C570.563 271.991 569.889 272.574 569.567 273.361C566.494 273.827 563.713 275.11 561.401 276.946C559.411 275.051 556.893 273.711 554.112 273.157C554.112 272.982 554.112 272.778 554.112 272.603C553.908 265.405 549.517 262.141 544.102 258.731C542.111 257.478 540.706 256.633 539.741 256.05C539.741 256.021 539.741 255.992 539.741 255.992C539.741 253.078 537.809 250.63 535.145 249.814C534.882 248.706 534.618 247.628 534.472 246.929C534.443 246.841 534.443 246.783 534.413 246.695C534.677 246.404 534.852 246.025 534.852 245.588C534.852 245.063 534.618 244.626 534.238 244.335H534.121C534.091 244.014 534.033 243.665 534.003 243.286H534.033C534.208 243.082 534.325 242.849 534.325 242.557C534.325 242.207 534.15 241.887 533.886 241.683H533.857C533.828 241.391 533.799 241.071 533.769 240.779H533.799C533.916 240.634 534.003 240.459 534.003 240.255C534.003 239.993 533.857 239.73 533.623 239.614C533.623 239.497 533.594 239.41 533.594 239.322C535.877 239.147 537.662 237.253 537.662 234.951C537.662 232.503 535.672 230.55 533.242 230.55C533.067 230.55 532.92 230.55 532.774 230.579C534.53 230.783 535.906 232.27 535.906 234.077C535.906 236.029 534.325 237.603 532.364 237.603C530.549 237.603 529.057 236.233 528.852 234.514C528.823 234.659 528.822 234.834 528.822 234.98C528.822 237.282 530.608 239.177 532.891 239.381C532.891 239.468 532.862 239.585 532.862 239.672C532.628 239.818 532.481 240.051 532.481 240.313C532.481 240.517 532.569 240.692 532.686 240.838H532.891C532.862 241.129 532.833 241.421 532.803 241.741H532.774C532.511 241.945 532.335 242.237 532.335 242.615C532.335 242.907 532.452 243.14 532.628 243.344H532.657C532.628 243.694 532.569 244.073 532.54 244.393H532.423C532.042 244.685 531.808 245.151 531.808 245.646C531.808 246.083 531.984 246.462 532.247 246.754C532.159 247.162 532.042 247.745 531.867 248.386C531.75 248.852 531.632 249.347 531.515 249.872C528.852 250.688 526.92 253.136 526.92 256.05C526.92 256.079 526.92 256.109 526.92 256.109C526.188 256.546 525.222 257.129 523.934 257.915C523.495 258.178 523.056 258.469 522.559 258.79C520.51 260.072 518.607 261.325 517.026 262.811C514.421 265.23 512.665 268.203 512.548 272.662C512.548 272.866 512.548 273.041 512.548 273.215C510.967 273.536 509.504 274.119 508.157 274.877V260.509H509.094V257.915H507.718C507.777 257.303 507.835 256.691 507.835 256.05C507.835 247.511 501.513 240.459 493.288 239.206C492.936 238.331 492.146 237.69 491.18 237.515L490.624 221.021L489.892 237.574C489.073 237.807 488.399 238.39 488.078 239.177C485.004 239.643 482.223 240.925 479.911 242.761C477.921 240.867 475.403 239.526 472.622 238.973C472.622 238.798 472.622 238.594 472.622 238.419C472.418 231.25 468.027 227.957 462.612 224.547C460.621 223.294 459.216 222.449 458.251 221.866C458.251 221.837 458.251 221.807 458.251 221.807C458.251 218.893 456.319 216.445 453.655 215.629C453.392 214.522 453.128 213.443 452.982 212.744C452.952 212.657 452.952 212.598 452.923 212.511C453.187 212.219 453.362 211.841 453.362 211.403C453.362 210.879 453.128 210.442 452.748 210.15H452.631C452.601 209.83 452.543 209.48 452.513 209.101H452.543C452.718 208.897 452.835 208.664 452.835 208.373C452.835 208.023 452.66 207.702 452.396 207.498H452.367C452.338 207.207 452.309 206.886 452.279 206.595H452.309C452.426 206.449 452.513 206.274 452.513 206.07C452.513 205.808 452.367 205.546 452.133 205.429C452.133 205.313 452.104 205.225 452.104 205.138C454.387 204.963 456.172 203.069 456.172 200.766C456.172 198.318 454.182 196.366 451.752 196.366C451.577 196.366 451.43 196.366 451.284 196.395C453.04 196.599 454.416 198.085 454.416 199.892C454.416 201.845 452.835 203.418 450.874 203.418C449.059 203.418 447.567 202.049 447.362 200.3C447.332 200.446 447.333 200.621 447.333 200.766C447.333 203.069 449.118 204.963 451.401 205.167C451.401 205.254 451.372 205.371 451.372 205.458C451.138 205.604 450.991 205.837 450.991 206.099C450.991 206.303 451.079 206.478 451.196 206.624H451.255C451.226 206.915 451.196 207.207 451.167 207.527H451.138C450.874 207.731 450.699 208.023 450.699 208.402C450.699 208.693 450.816 208.926 450.991 209.13H450.933C450.904 209.48 450.845 209.859 450.816 210.179H450.699C450.318 210.471 450.084 210.937 450.084 211.433C450.084 211.87 450.26 212.249 450.523 212.54C450.435 212.948 450.318 213.531 450.142 214.172C450.025 214.638 449.908 215.134 449.791 215.658C447.128 216.474 445.196 218.922 445.196 221.837C445.196 221.866 445.196 221.895 445.196 221.895C444.464 222.332 443.498 222.915 442.21 223.702C441.771 223.964 441.332 224.255 440.834 224.576C438.785 225.858 436.883 227.111 435.302 228.598C432.697 231.017 430.941 233.96 430.824 238.448C430.824 238.652 430.824 238.827 430.824 239.002C428.043 239.555 425.526 240.925 423.535 242.79C421.223 240.925 418.442 239.672 415.369 239.206C415.047 238.419 414.374 237.836 413.554 237.603L412.822 221.05L412.266 237.545C411.329 237.719 410.539 238.361 410.159 239.235C401.933 240.488 395.611 247.541 395.611 256.079C395.611 256.721 395.669 257.333 395.728 257.945H394.352V260.538H395.289V274.906C393.943 274.148 392.45 273.565 390.898 273.245C390.898 273.07 390.898 272.866 390.898 272.691C390.693 265.493 386.303 262.229 380.888 258.819C378.897 257.566 377.492 256.721 376.526 256.138C376.526 256.109 376.526 256.079 376.526 256.079C376.526 253.165 374.594 250.717 371.931 249.901C371.667 248.794 371.404 247.715 371.258 247.016C371.228 246.929 371.228 246.87 371.199 246.783C371.462 246.491 371.638 246.113 371.638 245.675C371.638 245.151 371.404 244.714 371.023 244.422H370.906C370.877 244.102 370.819 243.752 370.789 243.373H370.819C370.994 243.169 371.111 242.936 371.111 242.645C371.111 242.295 370.936 241.974 370.672 241.77H370.643C370.614 241.479 370.584 241.158 370.555 240.867H370.584C370.701 240.721 370.789 240.546 370.789 240.342C370.789 240.08 370.643 239.818 370.409 239.701C370.409 239.585 370.379 239.497 370.379 239.41C372.663 239.235 374.448 237.341 374.448 235.038C374.448 232.59 372.458 230.638 370.028 230.638C369.853 230.638 369.706 230.638 369.56 230.667C371.316 230.871 372.663 232.357 372.663 234.164C372.663 236.117 371.082 237.69 369.121 237.69C367.306 237.69 365.813 236.321 365.608 234.601C365.579 234.747 365.579 234.922 365.579 235.067C365.579 237.37 367.365 239.264 369.648 239.468C369.648 239.555 369.618 239.672 369.618 239.759C369.414 239.905 369.238 240.138 369.238 240.401C369.238 240.605 369.326 240.779 369.443 240.925H369.472C369.443 241.217 369.414 241.508 369.384 241.829H369.355C369.092 242.033 368.916 242.324 368.916 242.703C368.916 242.994 369.033 243.227 369.209 243.431H369.238C369.209 243.781 369.15 244.16 369.121 244.481H369.004C368.623 244.772 368.389 245.238 368.389 245.734C368.389 246.171 368.565 246.55 368.828 246.841C368.74 247.249 368.623 247.832 368.448 248.473C368.331 248.939 368.213 249.435 368.096 249.959C365.433 250.775 363.501 253.223 363.501 256.138C363.501 256.167 363.501 256.196 363.501 256.196C362.769 256.633 361.803 257.216 360.515 258.003C360.076 258.265 359.637 258.557 359.139 258.877C357.091 260.159 355.188 261.413 353.607 262.899C351.002 265.318 349.246 268.29 349.129 272.749C349.129 272.953 349.129 273.128 349.129 273.303C346.348 273.857 343.831 275.226 341.84 277.091C339.528 275.226 336.747 273.973 333.674 273.507C333.352 272.72 332.679 272.137 331.859 271.904L331.127 255.351L330.571 271.846C329.634 272.021 328.844 272.662 328.464 273.536C322.317 274.469 317.253 278.636 315.087 284.231C313.77 283.299 312.189 282.629 310.521 282.366C310.286 281.842 309.818 281.434 309.233 281.317L308.881 271.117L308.413 281.375C307.916 281.521 307.476 281.9 307.301 282.366C305.398 282.658 303.671 283.445 302.237 284.581C301.008 283.415 299.456 282.57 297.729 282.221C297.729 282.104 297.729 281.987 297.729 281.871C297.612 277.412 294.89 275.372 291.524 273.303C290.294 272.545 289.416 272.021 288.831 271.642V271.613C288.831 269.806 287.631 268.29 285.992 267.795C285.816 267.095 285.67 266.454 285.553 265.988C285.553 265.93 285.523 265.901 285.523 265.842C285.699 265.667 285.787 265.434 285.787 265.172C285.787 264.851 285.64 264.589 285.406 264.385H285.318C285.289 264.181 285.26 263.977 285.26 263.744C285.377 263.627 285.436 263.482 285.436 263.307C285.436 263.074 285.318 262.899 285.172 262.782H285.143C285.114 262.607 285.114 262.403 285.084 262.229H285.114C285.201 262.141 285.231 262.025 285.231 261.908C285.231 261.733 285.143 261.587 284.996 261.5C284.996 261.442 284.996 261.383 284.967 261.325C286.372 261.209 287.484 260.043 287.484 258.615C287.484 257.099 286.255 255.875 284.733 255.875C284.645 255.875 284.528 255.875 284.44 255.905C285.523 256.021 286.372 256.954 286.372 258.061C286.372 259.256 285.406 260.247 284.177 260.247C283.065 260.247 282.128 259.402 282.011 258.323C282.011 258.411 281.982 258.527 281.982 258.615C281.982 260.043 283.094 261.209 284.499 261.325C284.499 261.383 284.499 261.442 284.47 261.5C284.323 261.587 284.235 261.733 284.235 261.908C284.235 262.025 284.294 262.141 284.353 262.229H284.382C284.352 262.403 284.353 262.607 284.323 262.782H284.294C284.118 262.899 284.031 263.103 284.031 263.307C284.031 263.482 284.089 263.627 284.206 263.744C284.177 263.977 284.148 264.181 284.148 264.385H284.06C283.826 264.56 283.679 264.851 283.679 265.172C283.679 265.434 283.796 265.667 283.943 265.842C283.884 266.105 283.826 266.454 283.709 266.862C283.65 267.154 283.562 267.474 283.474 267.766C281.835 268.261 280.635 269.806 280.635 271.583C280.635 271.613 280.635 271.613 280.635 271.613C280.167 271.875 279.581 272.254 278.791 272.749C278.528 272.924 278.235 273.099 277.942 273.274C276.684 274.061 275.483 274.847 274.518 275.751C272.908 277.237 271.825 279.073 271.737 281.842C271.737 281.958 271.737 282.075 271.737 282.191C270.01 282.541 268.458 283.386 267.229 284.552C265.795 283.415 264.068 282.629 262.165 282.337C261.96 281.842 261.551 281.492 261.053 281.346L260.585 271.088L260.233 281.288C259.648 281.405 259.15 281.783 258.945 282.337C253.852 283.124 249.93 287.495 249.93 292.77C249.93 293.149 249.959 293.528 249.989 293.907H249.14V295.51H249.725V304.398C248.876 303.932 247.969 303.553 247.003 303.378C247.003 303.262 247.003 303.145 247.003 303.029C246.886 298.57 244.164 296.53 240.797 294.461C240.622 294.344 240.446 294.257 240.3 294.14V254.885C240.3 253.369 240.944 252.029 241.939 251.067V248.969H243.315C243.256 248.357 243.198 247.745 243.198 247.103C243.198 243.023 244.632 239.293 247.003 236.35V212.482H246.271V210.238H245.334V202.515H246.242V201.32H247.325C247.325 201.32 247.325 195.462 247.325 194.063C247.325 192.839 246.71 192.111 246.242 191.732V190.187H244.544V187.943H246.096V184.475H245.598V182.261H247.501V181.561C247.266 181.503 247.091 181.299 247.091 181.037C247.091 180.803 247.237 180.629 247.442 180.541C247.179 180.279 246.798 179.696 246.827 178.589C246.886 176.986 247.852 176.257 249.081 175.499C249.667 175.121 250.018 174.917 250.252 174.8C250.281 174.771 250.34 174.771 250.369 174.742C250.281 174.713 250.252 174.654 250.252 174.625C250.252 174.538 250.515 174.45 250.896 174.392C250.984 174.042 251.189 173.226 251.276 172.847C251.276 172.818 251.276 172.818 251.276 172.789C251.218 172.731 251.189 172.643 251.189 172.556C251.189 172.439 251.247 172.352 251.335 172.265H251.364C251.364 172.177 251.394 172.119 251.394 172.031C251.364 172.002 251.335 171.944 251.335 171.857C251.335 171.769 251.364 171.711 251.423 171.653C251.423 171.594 251.452 171.507 251.452 171.449C251.423 171.419 251.394 171.39 251.394 171.332C251.394 171.274 251.423 171.215 251.481 171.186C251.481 171.157 251.481 171.128 251.481 171.128C250.984 171.099 250.574 170.662 250.574 170.137C250.574 169.583 251.013 169.146 251.569 169.146C251.598 169.146 251.628 169.146 251.686 169.146C251.306 169.205 250.984 169.525 250.984 169.933C250.984 170.37 251.335 170.72 251.774 170.72C252.184 170.72 252.506 170.429 252.564 170.021C252.564 170.05 252.564 170.079 252.564 170.137C252.564 170.662 252.155 171.07 251.657 171.128C251.657 171.157 251.657 171.186 251.657 171.186C251.716 171.215 251.745 171.274 251.745 171.332C251.745 171.39 251.716 171.419 251.686 171.449C251.686 171.507 251.686 171.594 251.716 171.653C251.774 171.682 251.803 171.769 251.803 171.857C251.803 171.915 251.774 171.973 251.745 172.031C251.745 172.119 251.774 172.177 251.774 172.265H251.803C251.891 172.323 251.95 172.439 251.95 172.556C251.95 172.643 251.92 172.731 251.862 172.789C251.891 172.877 251.92 173.022 251.95 173.168C252.037 173.576 252.184 174.13 252.272 174.392C252.652 174.45 252.916 174.509 252.916 174.625C252.916 174.654 252.857 174.713 252.799 174.742C252.828 174.771 252.857 174.771 252.916 174.8C252.974 174.829 253.003 174.858 253.091 174.887C253.267 174.975 253.472 175.121 253.764 175.295C253.852 175.354 253.969 175.412 254.086 175.499C254.555 175.791 254.965 176.082 255.316 176.403C255.901 176.957 256.282 177.598 256.311 178.618C256.311 178.997 256.282 179.288 256.223 179.55C256.106 180.046 255.872 180.366 255.696 180.541C255.901 180.629 256.048 180.833 256.048 181.037C256.048 181.299 255.872 181.503 255.638 181.561V182.261H257.54V184.475H257.043V187.943H258.594V190.187H256.896V192.227C256.574 192.635 256.311 193.247 256.311 194.063C256.311 195.521 256.311 201.32 256.311 201.32H256.896V202.515H257.804V210.238H256.867V212.482H256.135V230.521C256.75 230.346 257.365 230.23 258.009 230.113C258.36 229.239 259.15 228.598 260.116 228.423L260.672 211.841L261.404 228.51C262.224 228.743 262.897 229.355 263.248 230.113C263.98 230.23 264.712 230.375 265.414 230.579V218.427H263.834V213.968H266.175C266.058 212.919 265.97 211.87 265.97 210.791C265.97 196.162 276.801 184.038 290.909 181.911C291.524 180.425 292.87 179.317 294.509 179.026L295.475 150.757L296.734 179.142C298.139 179.55 299.31 180.57 299.866 181.882C313.975 184.038 324.805 196.133 324.805 210.762C324.805 211.841 324.717 212.89 324.6 213.939H326.151V218.398H325.185V233.96C326.034 233.377 326.942 232.794 327.878 232.211C328.347 231.92 328.815 231.629 329.225 231.366C329.283 225.975 333.235 221.487 338.416 220.583C338.591 219.884 338.738 219.243 338.826 218.747C338.855 218.66 338.855 218.573 338.884 218.485C338.562 218.165 338.386 217.727 338.386 217.232C338.386 216.649 338.65 216.125 339.089 215.804H339.235C339.265 215.425 339.323 215.017 339.352 214.609H339.323C339.118 214.405 339.001 214.114 339.001 213.793C339.001 213.385 339.206 213.035 339.499 212.802H339.528C339.557 212.453 339.587 212.103 339.645 211.782H339.587C339.44 211.637 339.352 211.433 339.352 211.199C339.352 210.879 339.528 210.617 339.762 210.471C339.762 210.354 339.791 210.238 339.791 210.121C337.216 209.917 335.167 207.761 335.167 205.138C335.167 202.369 337.421 200.125 340.201 200.125C340.377 200.125 340.552 200.125 340.757 200.154C338.767 200.387 337.216 202.078 337.216 204.118C337.216 206.333 339.001 208.11 341.226 208.11C343.275 208.11 344.972 206.566 345.207 204.584C345.236 204.759 345.236 204.934 345.236 205.138C345.236 207.761 343.187 209.917 340.611 210.121C340.611 210.238 340.64 210.354 340.64 210.471C340.904 210.617 341.05 210.879 341.05 211.199C341.05 211.433 340.962 211.637 340.816 211.782H340.757C340.787 212.103 340.816 212.453 340.874 212.802H340.904C341.196 213.035 341.401 213.385 341.401 213.793C341.401 214.114 341.284 214.405 341.079 214.609H341.05C341.079 215.017 341.138 215.425 341.167 215.804H341.314C341.753 216.154 342.016 216.649 342.016 217.232C342.016 217.727 341.811 218.165 341.518 218.485C341.606 218.951 341.753 219.593 341.928 220.35C341.957 220.409 341.958 220.467 341.987 220.525C347.343 221.341 351.441 225.946 351.441 231.483C351.792 231.687 352.144 231.92 352.524 232.153C353.607 232.823 354.661 233.523 355.656 234.222C356.593 220.496 367.043 209.422 380.507 207.353C381.122 205.866 382.468 204.759 384.107 204.467L385.073 176.199L386.332 204.584C387.737 204.992 388.908 206.012 389.464 207.323C392.479 207.79 395.377 208.693 398.011 210.005V192.373H397.279V190.129H396.343V182.406H397.25V181.211H397.836C397.836 181.211 397.836 175.412 397.836 173.955C397.836 173.139 397.572 172.527 397.25 172.119V170.079H395.552V167.835H397.104V164.367H396.606V162.269H398.509V161.569C398.275 161.511 398.099 161.307 398.099 161.045C398.099 160.811 398.245 160.607 398.45 160.549C398.275 160.374 398.04 160.054 397.923 159.558C397.865 159.296 397.836 158.975 397.836 158.626C397.865 157.635 398.245 156.965 398.831 156.411C399.182 156.09 399.621 155.799 400.06 155.507C400.177 155.449 400.265 155.362 400.382 155.303C400.675 155.129 400.909 154.983 401.055 154.895C401.114 154.866 401.172 154.837 401.231 154.808C401.26 154.779 401.319 154.75 401.348 154.75C401.26 154.721 401.231 154.662 401.231 154.633C401.231 154.546 401.494 154.458 401.875 154.4C401.933 154.138 402.08 153.584 402.197 153.176C402.226 153.03 402.255 152.914 402.285 152.797C402.226 152.739 402.197 152.651 402.197 152.564C402.197 152.447 402.255 152.36 402.343 152.273H402.372C402.372 152.185 402.402 152.127 402.402 152.039C402.372 152.01 402.343 151.952 402.343 151.865C402.343 151.777 402.373 151.719 402.431 151.661C402.431 151.602 402.46 151.515 402.46 151.457C402.431 151.427 402.402 151.398 402.402 151.34C402.402 151.282 402.431 151.223 402.49 151.194C402.49 151.165 402.49 151.136 402.49 151.136C401.992 151.107 401.582 150.67 401.582 150.145C401.582 150.116 401.582 150.087 401.582 150.029C401.641 150.407 401.963 150.728 402.372 150.728C402.812 150.728 403.163 150.378 403.163 149.941C403.163 149.533 402.87 149.213 402.46 149.154C402.49 149.154 402.519 149.154 402.577 149.154C403.134 149.154 403.573 149.591 403.573 150.145C403.573 150.67 403.163 151.078 402.665 151.136C402.665 151.165 402.665 151.194 402.665 151.194C402.724 151.223 402.753 151.282 402.753 151.34C402.753 151.398 402.724 151.427 402.694 151.457C402.694 151.515 402.694 151.602 402.724 151.661C402.782 151.69 402.812 151.777 402.812 151.865C402.812 151.923 402.782 151.981 402.753 152.039C402.753 152.127 402.782 152.185 402.782 152.273H402.812C402.899 152.331 402.958 152.447 402.958 152.564C402.958 152.651 402.929 152.739 402.87 152.797C402.87 152.826 402.87 152.826 402.87 152.855C402.958 153.234 403.163 154.05 403.251 154.4C403.631 154.458 403.895 154.517 403.895 154.633C403.895 154.662 403.836 154.721 403.778 154.75C403.807 154.779 403.836 154.779 403.895 154.808C404.099 154.925 404.48 155.158 405.065 155.507C406.266 156.265 407.261 156.994 407.319 158.626C407.349 159.704 406.968 160.287 406.705 160.578C406.909 160.666 407.056 160.87 407.056 161.074C407.056 161.336 406.88 161.54 406.646 161.598V162.269H408.549V164.483H408.051V167.951H409.602V170.195H407.905V171.74C407.436 172.119 406.822 172.847 406.822 174.071C406.822 175.47 406.822 181.328 406.822 181.328H407.905V182.523H408.812V190.246H407.875V192.49H407.144V210.821C409.837 209.043 412.881 207.761 416.159 207.09C416.159 206.77 416.159 206.449 416.159 206.129C416.364 198.464 419.379 193.393 423.828 189.255C426.55 186.749 429.799 184.563 433.312 182.377C434.161 181.853 434.951 181.357 435.683 180.891C437.849 179.55 439.517 178.53 440.776 177.773C440.776 177.743 440.776 177.685 440.776 177.656C440.776 172.673 444.083 168.447 448.65 167.048C448.884 166.174 449.089 165.299 449.264 164.513C449.528 163.376 449.762 162.414 449.908 161.686C449.44 161.19 449.147 160.549 449.147 159.791C449.147 158.917 449.557 158.13 450.201 157.635H450.406C450.464 157.081 450.523 156.469 450.611 155.828H450.582C450.26 155.507 450.084 155.07 450.084 154.575C450.084 153.963 450.377 153.438 450.845 153.089H450.904C450.962 152.564 451.021 152.039 451.05 151.544H450.962C450.757 151.311 450.611 150.99 450.611 150.67C450.611 150.203 450.874 149.795 451.255 149.562C451.284 149.387 451.284 149.213 451.313 149.067C447.42 148.746 444.347 145.511 444.347 141.548C444.347 141.286 444.376 140.994 444.405 140.732C444.757 143.734 447.303 146.065 450.406 146.065C453.743 146.065 456.465 143.355 456.465 140.033C456.465 136.943 454.123 134.408 451.108 134.058C451.372 134.029 451.665 134 451.928 134C456.114 134 459.509 137.381 459.509 141.548C459.509 145.511 456.436 148.746 452.543 149.067C452.572 149.242 452.572 149.387 452.601 149.562C452.982 149.795 453.245 150.203 453.245 150.67C453.245 151.019 453.099 151.311 452.894 151.544H452.806C452.865 152.039 452.923 152.564 452.953 153.089H453.011C453.479 153.409 453.772 153.963 453.772 154.575C453.772 155.07 453.567 155.507 453.274 155.828H453.245C453.304 156.44 453.362 157.052 453.45 157.635H453.655C454.299 158.13 454.709 158.917 454.709 159.791C454.709 160.52 454.416 161.19 453.948 161.686C453.977 161.802 454.006 161.948 454.036 162.065C454.299 163.289 454.738 165.125 455.206 167.019C459.773 168.418 463.08 172.643 463.08 177.627C463.08 177.656 463.08 177.714 463.08 177.743C464.778 178.734 467.178 180.221 470.574 182.319C479.852 188.118 487.375 193.772 487.726 206.07C487.726 206.391 487.726 206.711 487.726 207.032C491.005 207.702 494.049 208.985 496.712 210.762V192.431H495.981V190.187H495.044V182.465H495.951V181.27H496.537C496.537 181.27 496.537 175.47 496.537 174.013C496.537 173.168 496.273 172.585 495.951 172.177V170.137H494.254V167.893H495.805V164.425H495.307V162.269H497.21V161.569C496.976 161.511 496.8 161.307 496.8 161.045C496.8 160.811 496.947 160.607 497.151 160.549C496.976 160.374 496.742 160.054 496.625 159.558C496.566 159.296 496.537 158.975 496.537 158.626C496.566 157.635 496.947 156.965 497.532 156.411C497.883 156.09 498.322 155.799 498.761 155.507C498.878 155.449 498.966 155.362 499.083 155.303C499.376 155.129 499.61 154.983 499.757 154.895C499.815 154.866 499.874 154.837 499.932 154.808C499.961 154.779 500.02 154.779 500.049 154.75C499.961 154.721 499.932 154.662 499.932 154.633C499.932 154.546 500.196 154.458 500.576 154.4C500.635 154.138 500.781 153.584 500.898 153.176C500.927 153.03 500.957 152.914 500.986 152.797C500.927 152.739 500.898 152.651 500.898 152.564C500.898 152.447 500.957 152.36 501.044 152.273H501.074C501.074 152.185 501.103 152.127 501.103 152.039C501.074 152.01 501.044 151.952 501.044 151.865C501.044 151.777 501.074 151.719 501.132 151.661C501.132 151.602 501.132 151.515 501.162 151.457C501.132 151.427 501.103 151.398 501.103 151.34C501.103 151.282 501.132 151.223 501.191 151.194C501.191 151.165 501.191 151.136 501.191 151.136C500.693 151.107 500.283 150.67 500.283 150.145C500.283 150.116 500.283 150.087 500.283 150.029C500.342 150.407 500.664 150.728 501.074 150.728C501.513 150.728 501.864 150.378 501.864 149.941C501.864 149.533 501.571 149.213 501.162 149.154C501.191 149.154 501.22 149.154 501.279 149.154C501.835 149.154 502.274 149.591 502.274 150.145C502.274 150.67 501.864 151.078 501.366 151.136C501.366 151.165 501.366 151.194 501.366 151.194C501.425 151.223 501.454 151.282 501.454 151.34C501.454 151.398 501.425 151.427 501.396 151.457C501.396 151.515 501.396 151.602 501.425 151.661C501.484 151.69 501.513 151.777 501.513 151.865C501.513 151.923 501.484 151.981 501.454 152.039C501.454 152.127 501.484 152.214 501.484 152.273H501.513C501.601 152.331 501.659 152.447 501.659 152.564C501.659 152.651 501.63 152.739 501.571 152.797C501.571 152.826 501.571 152.826 501.571 152.855C501.659 153.234 501.864 154.05 501.952 154.4C502.332 154.458 502.596 154.517 502.596 154.633C502.596 154.662 502.537 154.721 502.479 154.75C502.508 154.779 502.537 154.779 502.596 154.808C502.801 154.925 503.181 155.158 503.767 155.507C504.967 156.265 505.962 156.994 506.021 158.597C506.05 159.675 505.669 160.258 505.406 160.549C505.611 160.637 505.757 160.841 505.757 161.045C505.757 161.307 505.581 161.511 505.347 161.569V162.269H507.25V164.483H506.752V167.951H508.304V170.195H506.606V171.74C506.138 172.119 505.523 172.847 505.523 174.071C505.523 175.47 505.523 181.328 505.523 181.328H506.606V182.523H507.513V190.246H506.577V192.49H505.845V210.121C508.509 208.81 511.377 207.906 514.392 207.44C514.948 206.099 516.09 205.109 517.524 204.701L518.783 176.315L519.749 204.584C521.388 204.875 522.705 205.983 523.349 207.469C536.784 209.509 547.263 220.613 548.2 234.339C549.195 233.639 550.249 232.969 551.332 232.27C551.712 232.037 552.064 231.803 552.415 231.599C552.415 226.033 556.513 221.429 561.899 220.642C561.928 220.583 561.928 220.525 561.928 220.467C562.103 219.709 562.25 219.068 562.338 218.602C562.016 218.281 561.84 217.844 561.84 217.349C561.84 216.766 562.103 216.241 562.542 215.921H562.689C562.718 215.542 562.777 215.134 562.806 214.726H562.777C562.572 214.522 562.455 214.23 562.455 213.91C562.455 213.502 562.66 213.152 562.952 212.919H562.982C563.011 212.569 563.04 212.219 563.099 211.899H563.04C562.894 211.753 562.806 211.549 562.806 211.316C562.806 210.995 562.982 210.733 563.216 210.587C563.216 210.471 563.245 210.354 563.245 210.238C560.669 210.034 558.62 207.877 558.62 205.254C558.62 205.079 558.62 204.875 558.649 204.701C558.884 206.682 560.581 208.227 562.63 208.227C564.855 208.227 566.64 206.449 566.64 204.234C566.64 202.194 565.089 200.504 563.099 200.271C563.274 200.242 563.45 200.242 563.655 200.242C566.436 200.242 568.689 202.486 568.689 205.254C568.689 207.877 566.67 210.034 564.065 210.238C564.065 210.354 564.094 210.471 564.094 210.587C564.357 210.733 564.504 210.995 564.504 211.316C564.504 211.549 564.416 211.753 564.269 211.899H564.211C564.24 212.219 564.269 212.569 564.328 212.919H564.357C564.65 213.152 564.855 213.502 564.855 213.91C564.855 214.23 564.738 214.522 564.533 214.726H564.504C564.533 215.134 564.591 215.542 564.621 215.921H564.767C565.206 216.27 565.47 216.766 565.47 217.349C565.47 217.844 565.265 218.281 564.972 218.602C565.001 218.689 565.001 218.777 565.031 218.864C565.148 219.359 565.294 220.001 565.44 220.7C570.621 221.603 574.573 226.062 574.631 231.483C575.041 231.745 575.509 232.007 575.978 232.328C576.914 232.911 577.793 233.494 578.671 234.077V218.573H577.705V214.114H579.256C579.139 213.065 579.051 212.015 579.051 210.937C579.051 196.307 589.881 184.184 603.99 182.057C604.546 180.716 605.688 179.725 607.122 179.317L608.381 150.932L609.347 179.201C610.986 179.492 612.332 180.599 612.947 182.086C627.055 184.242 637.886 196.337 637.886 210.966C637.886 212.045 637.798 213.094 637.681 214.143H640.022V218.602H638.442V230.667C639.027 230.521 639.642 230.375 640.257 230.288C640.579 229.501 641.252 228.918 642.101 228.685L642.832 212.015L643.389 228.598C644.354 228.773 645.145 229.414 645.496 230.288C646.14 230.375 646.755 230.521 647.369 230.696V212.657H646.638V210.413H645.701V202.69H646.608V201.495H647.194C647.194 201.495 647.194 195.695 647.194 194.238C647.194 193.422 646.93 192.81 646.608 192.402V190.362H644.911V188.118H646.462V184.65H645.964V182.435H647.867V181.736C647.633 181.678 647.457 181.474 647.457 181.211C647.457 180.978 647.604 180.774 647.808 180.716C647.633 180.541 647.399 180.221 647.282 179.725C647.223 179.463 647.164 179.142 647.194 178.793C647.223 177.802 647.604 177.131 648.189 176.578C648.54 176.257 648.979 175.966 649.418 175.674C649.535 175.616 649.623 175.529 649.74 175.47C650.033 175.295 650.267 175.15 650.414 175.062C650.472 175.033 650.531 175.004 650.589 174.975C650.618 174.946 650.677 174.917 650.706 174.917C650.618 174.887 650.589 174.829 650.589 174.8C650.589 174.713 650.853 174.625 651.233 174.567C651.292 174.305 651.438 173.751 651.555 173.343C651.584 173.197 651.614 173.081 651.643 172.964C651.584 172.906 651.555 172.818 651.555 172.731C651.555 172.614 651.614 172.527 651.701 172.439H651.731C651.731 172.352 651.76 172.294 651.76 172.206C651.731 172.177 651.701 172.119 651.701 172.031C651.701 171.944 651.731 171.886 651.789 171.827C651.789 171.769 651.819 171.682 651.819 171.623C651.789 171.594 651.76 171.565 651.76 171.507C651.76 171.449 651.789 171.39 651.848 171.361C651.848 171.332 651.848 171.303 651.848 171.303C651.35 171.274 650.94 170.837 650.94 170.312C650.94 170.283 650.94 170.254 650.94 170.195C650.999 170.574 651.321 170.895 651.731 170.895C652.17 170.895 652.521 170.545 652.521 170.108C652.521 169.7 652.228 169.379 651.819 169.321C651.848 169.321 651.877 169.321 651.936 169.321C652.492 169.321 652.931 169.758 652.931 170.312C652.931 170.837 652.521 171.245 652.023 171.303C652.023 171.332 652.023 171.361 652.023 171.361C652.082 171.39 652.111 171.449 652.111 171.507C652.111 171.565 652.082 171.594 652.053 171.623C652.053 171.682 652.053 171.769 652.082 171.827C652.141 171.857 652.17 171.944 652.17 172.031C652.17 172.09 652.141 172.148 652.111 172.206C652.111 172.294 652.141 172.352 652.141 172.439H652.17C652.258 172.498 652.316 172.614 652.316 172.731C652.316 172.818 652.287 172.906 652.228 172.964C652.228 172.993 652.228 172.993 652.228 173.022C652.316 173.401 652.521 174.217 652.609 174.567C652.989 174.625 653.253 174.683 653.253 174.8C653.253 174.829 653.194 174.887 653.136 174.917C653.165 174.946 653.194 174.946 653.253 174.975C653.458 175.091 653.838 175.325 654.424 175.674C655.624 176.432 656.619 177.161 656.677 178.793C656.707 179.871 656.326 180.454 656.063 180.745C656.268 180.833 656.414 181.037 656.414 181.241C656.414 181.503 656.238 181.707 656.004 181.765V182.465H657.907V184.679H657.409V188.147H658.961V190.391H657.263V191.936C656.795 192.315 656.18 193.043 656.18 194.267C656.18 195.666 656.18 201.524 656.18 201.524H656.707V202.719H657.614V210.442H656.677V212.686H655.946V236.554C658.317 239.497 659.751 243.227 659.751 247.307C659.751 247.949 659.692 248.561 659.634 249.173H661.01V250.979C662.21 251.941 663 253.427 663 255.089V294.286C662.854 294.373 662.678 294.49 662.502 294.606C661.244 295.189 660.073 295.976 659.078 296.879ZM251.394 194.093C251.394 192.198 249.842 191.441 249.842 191.441C249.842 191.441 248.291 192.111 248.291 194.093C248.291 195.55 248.291 201.349 248.291 201.349H251.364C251.394 201.349 251.394 195.462 251.394 194.093ZM255.345 194.093C255.345 192.198 253.794 191.441 253.794 191.441C253.794 191.441 252.242 192.111 252.242 194.093C252.242 195.55 252.242 201.349 252.242 201.349H255.316C255.345 201.349 255.345 195.462 255.345 194.093ZM401.758 174.042C401.758 172.09 400.206 171.39 400.206 171.39C400.206 171.39 398.655 172.119 398.655 174.042C398.655 175.441 398.655 181.299 398.655 181.299H401.758C401.758 181.299 401.758 175.529 401.758 174.042ZM405.709 174.042C405.709 172.09 404.158 171.39 404.158 171.39C404.158 171.39 402.607 172.119 402.607 174.042C402.607 175.441 402.607 181.299 402.607 181.299H405.68C405.709 181.299 405.709 175.529 405.709 174.042ZM500.283 174.042C500.283 172.09 498.732 171.39 498.732 171.39C498.732 171.39 497.181 172.119 497.181 174.042C497.181 175.441 497.181 181.299 497.181 181.299H500.254C500.283 181.299 500.283 175.529 500.283 174.042ZM504.235 174.042C504.235 172.09 502.684 171.39 502.684 171.39C502.684 171.39 501.132 172.119 501.132 174.042C501.132 175.441 501.132 181.299 501.132 181.299H504.206C504.235 181.299 504.235 175.529 504.235 174.042ZM650.794 194.093C650.794 192.14 649.243 191.441 649.243 191.441C649.243 191.441 647.691 192.169 647.691 194.093C647.691 195.491 647.691 201.349 647.691 201.349H650.765C650.794 201.349 650.794 195.55 650.794 194.093ZM654.746 194.093C654.746 192.14 653.194 191.441 653.194 191.441C653.194 191.441 651.643 192.169 651.643 194.093C651.643 195.491 651.643 201.349 651.643 201.349H654.716C654.746 201.349 654.746 195.55 654.746 194.093Z" fill="#625436"/>
</g>
<rect width="1920" height="68" transform="matrix(-1 0 0 1 1920 265)" fill="#625436"/>
</svg>
