<svg width="600" height="600" viewBox="0 0 600 600" fill="none" xmlns="http://www.w3.org/2000/svg">
<path d="M600 0H0V600H600V0Z" fill="white"/>
<path fill-rule="evenodd" clip-rule="evenodd" d="M200.201 239.128C249.581 258.068 269.743 282.851 277.216 314.271C305.173 307.194 335.358 311.247 361 326.634C323.753 315.945 283.663 322.405 251.662 344.34C219.66 366.246 199.059 401.307 195.454 439.98C188.245 397.402 206.443 354.559 242.02 330.187C246.269 327.28 250.695 324.696 255.237 322.434C248.76 295.772 231.646 274.893 190.589 259.389C117.795 286.903 120.256 331.214 123.802 394.759C125.912 432.757 116.154 444.972 103.347 446C103.347 427.823 102.439 411.379 101.589 395.992C97.4861 322.493 94.6435 271.311 183.263 238.276L190.355 195.051H190.326C179.014 195.198 169.841 185.86 169.841 174.526C169.841 173.938 169.87 173.381 169.9 172.793C170.691 181.573 178.047 188.415 187.014 188.415C196.509 188.415 204.187 180.692 204.187 171.208C204.187 162.222 197.329 154.852 188.567 154.059C189.124 154 189.71 154 190.296 154C201.608 154 210.781 163.191 210.781 174.526C210.781 185.537 202.106 194.523 191.234 195.022L200.201 239.128Z" fill="#023440"/>
<path d="M268.545 373.496V380.62H258.873V410H249.981V380.62H240.309V373.496H268.545ZM271.239 395.44C271.239 392.459 271.794 389.841 272.903 387.588C274.047 385.335 275.59 383.601 277.531 382.388C279.473 381.175 281.639 380.568 284.031 380.568C286.077 380.568 287.862 380.984 289.387 381.816C290.947 382.648 292.143 383.74 292.975 385.092V380.984H301.867V410H292.975V405.892C292.109 407.244 290.895 408.336 289.335 409.168C287.81 410 286.025 410.416 283.979 410.416C281.622 410.416 279.473 409.809 277.531 408.596C275.59 407.348 274.047 405.597 272.903 403.344C271.794 401.056 271.239 398.421 271.239 395.44ZM292.975 395.492C292.975 393.273 292.351 391.523 291.103 390.24C289.89 388.957 288.399 388.316 286.631 388.316C284.863 388.316 283.355 388.957 282.107 390.24C280.894 391.488 280.287 393.221 280.287 395.44C280.287 397.659 280.894 399.427 282.107 400.744C283.355 402.027 284.863 402.668 286.631 402.668C288.399 402.668 289.89 402.027 291.103 400.744C292.351 399.461 292.975 397.711 292.975 395.492ZM317.192 371.52V410H308.3V371.52H317.192ZM350.988 395.024C350.988 395.856 350.936 396.723 350.832 397.624H330.708C330.847 399.427 331.419 400.813 332.424 401.784C333.464 402.72 334.729 403.188 336.22 403.188C338.439 403.188 339.981 402.252 340.848 400.38H350.312C349.827 402.287 348.943 404.003 347.66 405.528C346.412 407.053 344.835 408.249 342.928 409.116C341.021 409.983 338.889 410.416 336.532 410.416C333.689 410.416 331.159 409.809 328.94 408.596C326.721 407.383 324.988 405.649 323.74 403.396C322.492 401.143 321.868 398.508 321.868 395.492C321.868 392.476 322.475 389.841 323.688 387.588C324.936 385.335 326.669 383.601 328.888 382.388C331.107 381.175 333.655 380.568 336.532 380.568C339.34 380.568 341.836 381.157 344.02 382.336C346.204 383.515 347.903 385.196 349.116 387.38C350.364 389.564 350.988 392.112 350.988 395.024ZM341.888 392.684C341.888 391.159 341.368 389.945 340.328 389.044C339.288 388.143 337.988 387.692 336.428 387.692C334.937 387.692 333.672 388.125 332.632 388.992C331.627 389.859 331.003 391.089 330.76 392.684H341.888ZM383.031 395.024C383.031 395.856 382.979 396.723 382.875 397.624H362.751C362.89 399.427 363.462 400.813 364.467 401.784C365.507 402.72 366.772 403.188 368.263 403.188C370.482 403.188 372.024 402.252 372.891 400.38H382.355C381.87 402.287 380.986 404.003 379.703 405.528C378.455 407.053 376.878 408.249 374.971 409.116C373.064 409.983 370.932 410.416 368.575 410.416C365.732 410.416 363.202 409.809 360.983 408.596C358.764 407.383 357.031 405.649 355.783 403.396C354.535 401.143 353.911 398.508 353.911 395.492C353.911 392.476 354.518 389.841 355.731 387.588C356.979 385.335 358.712 383.601 360.931 382.388C363.15 381.175 365.698 380.568 368.575 380.568C371.383 380.568 373.879 381.157 376.063 382.336C378.247 383.515 379.946 385.196 381.159 387.38C382.407 389.564 383.031 392.112 383.031 395.024ZM373.931 392.684C373.931 391.159 373.411 389.945 372.371 389.044C371.331 388.143 370.031 387.692 368.471 387.692C366.98 387.692 365.715 388.125 364.675 388.992C363.67 389.859 363.046 391.089 362.803 392.684H373.931ZM424.746 380.672C428.351 380.672 431.211 381.764 433.326 383.948C435.475 386.132 436.55 389.165 436.55 393.048V410H427.71V394.244C427.71 392.372 427.207 390.933 426.202 389.928C425.231 388.888 423.879 388.368 422.146 388.368C420.413 388.368 419.043 388.888 418.038 389.928C417.067 390.933 416.582 392.372 416.582 394.244V410H407.742V394.244C407.742 392.372 407.239 390.933 406.234 389.928C405.263 388.888 403.911 388.368 402.178 388.368C400.445 388.368 399.075 388.888 398.07 389.928C397.099 390.933 396.614 392.372 396.614 394.244V410H387.722V380.984H396.614V384.624C397.515 383.411 398.694 382.457 400.15 381.764C401.606 381.036 403.253 380.672 405.09 380.672C407.274 380.672 409.215 381.14 410.914 382.076C412.647 383.012 413.999 384.347 414.97 386.08C415.975 384.485 417.345 383.185 419.078 382.18C420.811 381.175 422.701 380.672 424.746 380.672ZM471.421 380.984V410H462.529V406.048C461.628 407.331 460.397 408.371 458.837 409.168C457.312 409.931 455.613 410.312 453.741 410.312C451.522 410.312 449.564 409.827 447.865 408.856C446.166 407.851 444.849 406.412 443.913 404.54C442.977 402.668 442.509 400.467 442.509 397.936V380.984H451.349V396.74C451.349 398.681 451.852 400.189 452.857 401.264C453.862 402.339 455.214 402.876 456.913 402.876C458.646 402.876 460.016 402.339 461.021 401.264C462.026 400.189 462.529 398.681 462.529 396.74V380.984H471.421ZM486.7 371.52V410H477.808V371.52H486.7Z" fill="#023440"/>
<path d="M298.859 414.64C301.139 414.64 303.204 414.944 305.053 415.552C306.928 416.16 308.524 417.059 309.841 418.25C311.184 419.441 312.222 420.91 312.957 422.658C313.692 424.406 314.059 426.42 314.059 428.7C314.059 431.613 313.476 434.083 312.311 436.11C311.146 438.137 309.524 439.707 307.447 440.822L309.879 443.52L307.219 445.99L303.837 442.19C302.317 442.57 300.658 442.76 298.859 442.76C296.579 442.76 294.502 442.456 292.627 441.848C290.752 441.24 289.144 440.341 287.801 439.15C286.484 437.959 285.458 436.49 284.723 434.742C284.014 432.994 283.659 430.98 283.659 428.7C283.659 426.42 284.014 424.406 284.723 422.658C285.458 420.91 286.484 419.441 287.801 418.25C289.144 417.059 290.752 416.16 292.627 415.552C294.502 414.944 296.579 414.64 298.859 414.64ZM298.859 417.3C297.567 417.3 296.351 417.528 295.211 417.984C294.096 418.44 293.121 419.137 292.285 420.074C291.449 421.011 290.778 422.202 290.271 423.646C289.79 425.065 289.549 426.749 289.549 428.7C289.549 430.651 289.79 432.348 290.271 433.792C290.778 435.211 291.449 436.389 292.285 437.326C293.121 438.263 294.096 438.96 295.211 439.416C296.351 439.872 297.567 440.1 298.859 440.1C299.847 440.1 300.759 439.973 301.595 439.72L299.429 437.25L302.089 434.78L304.863 437.896C305.876 436.984 306.674 435.768 307.257 434.248C307.865 432.728 308.169 430.879 308.169 428.7C308.169 426.749 307.916 425.065 307.409 423.646C306.928 422.202 306.269 421.011 305.433 420.074C304.597 419.137 303.609 418.44 302.469 417.984C301.354 417.528 300.151 417.3 298.859 417.3ZM330.794 422.24H336.114V434.21C336.114 436.034 336.57 437.351 337.482 438.162C338.394 438.947 339.711 439.34 341.434 439.34H346.374V422.24H351.694V442H341.434C337.811 442 335.126 441.354 333.378 440.062C331.655 438.745 330.794 436.794 330.794 434.21V422.24ZM384.2 424.9H379.64C377.918 424.9 376.6 425.369 375.688 426.306C374.776 427.218 374.32 428.586 374.32 430.41V442H369V430.41C369 427.826 369.811 425.825 371.432 424.406C373.079 422.962 375.435 422.24 378.5 422.24H384.2V424.9ZM402.605 435.73C402.605 438.137 404.062 439.34 406.975 439.34H412.295V432.12H406.975C404.062 432.12 402.605 433.323 402.605 435.73ZM412.295 429.46C412.295 427.636 411.814 426.293 410.851 425.432C409.914 424.571 408.685 424.14 407.165 424.14C406.025 424.14 404.91 424.317 403.821 424.672C402.732 425.001 401.756 425.457 400.895 426.04L399.565 423.76C400.122 423.38 400.73 423.051 401.389 422.772C402.073 422.493 402.77 422.265 403.479 422.088C404.188 421.885 404.885 421.733 405.569 421.632C406.278 421.531 406.937 421.48 407.545 421.48C409.166 421.48 410.598 421.67 411.839 422.05C413.08 422.43 414.132 422.975 414.993 423.684C415.854 424.393 416.5 425.242 416.931 426.23C417.387 427.193 417.615 428.269 417.615 429.46V442H406.975C403.53 442 400.984 441.481 399.337 440.442C397.716 439.403 396.905 437.833 396.905 435.73C396.905 433.627 397.716 432.057 399.337 431.018C400.984 429.979 403.53 429.46 406.975 429.46H412.295ZM455.787 442H450.467V430.03C450.467 428.206 450.011 426.901 449.099 426.116C448.187 425.305 446.87 424.9 445.147 424.9H440.207V442H434.887V422.24H445.147C448.77 422.24 451.443 422.899 453.165 424.216C454.913 425.508 455.787 427.446 455.787 430.03V442Z" fill="#3B798C"/>
</svg>
