<svg width="1920" height="381" viewBox="0 0 1920 381" fill="none" xmlns="http://www.w3.org/2000/svg">
<rect width="1920" height="380" transform="matrix(-1 0 0 1 1920 0)" fill="#023440"/>
<path d="M748 312.833H1172V330.048H748V312.833Z" fill="#625436"/>
<path d="M748 328.676H1172V364.135H748V328.676Z" fill="#625436"/>
<path d="M803.075 306.042H1119.94V364.135H803.075V306.042Z" fill="#625436"/>
<path d="M1061.83 347.447L960.53 246.616L859.256 347.447" fill="#625436"/>
<path d="M1119.94 364.135L1018.47 278.883L916.996 364.135" fill="#625436"/>
<path d="M1011.3 364.135L909.818 278.883L808.356 364.135" fill="#625436"/>
<mask id="mask0_2284_19" style="mask-type:luminance" maskUnits="userSpaceOnUse" x="803" y="214" width="320" height="129">
<path d="M803.367 214H1122.21V342.623H803.367V214Z" fill="white"/>
</mask>
<g mask="url(#mask0_2284_19)">
<path d="M1119.25 336.884C1118.03 338.005 1117.22 339.391 1117.15 341.479C1117.15 341.567 1117.15 341.655 1117.15 341.743C1116.42 341.897 1115.71 342.161 1115.1 342.513V335.807H1115.54V334.598H1114.9C1114.92 334.312 1114.94 334.026 1114.94 333.74C1114.94 329.738 1112 326.462 1108.14 325.869C1107.96 325.473 1107.61 325.165 1107.17 325.077L1106.9 317.382L1106.55 325.121C1106.17 325.231 1105.84 325.517 1105.69 325.869C1104.25 326.089 1102.95 326.682 1101.87 327.54C1100.94 326.66 1099.77 326.023 1098.47 325.759C1098.47 325.671 1098.47 325.583 1098.47 325.495C1098.38 322.131 1096.32 320.592 1093.79 319.031C1092.86 318.459 1092.2 318.063 1091.75 317.778C1091.75 317.756 1091.75 317.756 1091.75 317.756C1091.75 316.392 1090.85 315.249 1089.61 314.875C1089.48 314.348 1089.37 313.864 1089.28 313.512C1089.28 313.468 1089.26 313.446 1089.26 313.402C1089.39 313.27 1089.46 313.094 1089.46 312.897C1089.46 312.655 1089.35 312.457 1089.17 312.303H1089.1C1089.08 312.149 1089.06 311.995 1089.06 311.819C1089.15 311.731 1089.19 311.621 1089.19 311.489C1089.19 311.313 1089.1 311.182 1088.99 311.094H1088.97C1088.95 310.962 1088.95 310.808 1088.93 310.676H1088.95C1089.02 310.61 1089.04 310.522 1089.04 310.434C1089.04 310.302 1088.97 310.192 1088.86 310.126C1088.86 310.082 1088.86 310.038 1088.84 309.994C1089.9 309.906 1090.74 309.027 1090.74 307.95C1090.74 306.806 1089.81 305.883 1088.66 305.883C1088.6 305.883 1088.51 305.883 1088.44 305.905C1089.26 305.993 1089.9 306.696 1089.9 307.532C1089.9 308.433 1089.17 309.181 1088.24 309.181C1087.4 309.181 1086.7 308.543 1086.61 307.73C1086.61 307.796 1086.59 307.884 1086.59 307.95C1086.59 309.027 1087.43 309.906 1088.49 309.994C1088.49 310.038 1088.49 310.082 1088.46 310.126C1088.35 310.192 1088.29 310.302 1088.29 310.434C1088.29 310.522 1088.33 310.61 1088.37 310.676H1088.4C1088.37 310.808 1088.37 310.94 1088.35 311.094H1088.33C1088.2 311.182 1088.13 311.335 1088.13 311.489C1088.13 311.621 1088.18 311.731 1088.26 311.819C1088.24 311.995 1088.22 312.149 1088.22 312.303H1088.15C1087.98 312.435 1087.87 312.655 1087.87 312.897C1087.87 313.094 1087.96 313.27 1088.07 313.402C1088.02 313.6 1087.98 313.864 1087.89 314.172C1087.84 314.392 1087.78 314.634 1087.71 314.853C1086.48 315.227 1085.57 316.392 1085.57 317.734V317.756C1085.22 317.954 1084.78 318.239 1084.18 318.591C1083.98 318.723 1083.76 318.855 1083.54 318.987C1082.59 319.581 1081.68 320.174 1080.95 320.856C1079.74 321.977 1078.92 323.362 1078.86 325.451C1078.86 325.539 1078.86 325.627 1078.86 325.715C1077.55 325.979 1076.38 326.616 1075.46 327.496C1074.37 326.638 1073.07 326.045 1071.64 325.825C1071.48 325.451 1071.17 325.187 1070.77 325.077L1070.42 317.338L1070.16 325.033C1069.71 325.121 1069.34 325.407 1069.18 325.825C1067.9 326.023 1066.73 326.506 1065.74 327.232C1064.11 323.01 1060.26 319.866 1055.65 319.163C1055.38 318.503 1054.79 318.019 1054.06 317.888L1053.64 305.443L1053.09 317.932C1052.47 318.107 1051.96 318.547 1051.72 319.141C1049.4 319.493 1047.3 320.46 1045.56 321.845C1044.05 320.416 1042.15 319.405 1040.06 318.987C1040.06 318.855 1040.06 318.701 1040.06 318.569C1039.9 313.138 1036.59 310.676 1032.5 308.103C1031 307.158 1029.94 306.52 1029.21 306.081C1029.21 306.059 1029.21 306.037 1029.21 306.037C1029.21 303.838 1027.76 301.991 1025.75 301.375C1025.55 300.54 1025.35 299.726 1025.24 299.199C1025.22 299.133 1025.22 299.089 1025.19 299.023C1025.39 298.803 1025.53 298.517 1025.53 298.187C1025.53 297.792 1025.35 297.462 1025.06 297.242H1024.97C1024.95 297 1024.91 296.736 1024.89 296.45H1024.91C1025.04 296.297 1025.13 296.121 1025.13 295.901C1025.13 295.637 1025 295.395 1024.8 295.241H1024.77C1024.75 295.021 1024.73 294.779 1024.71 294.56H1024.73C1024.82 294.45 1024.89 294.318 1024.89 294.164C1024.89 293.966 1024.77 293.768 1024.6 293.68C1024.6 293.592 1024.58 293.526 1024.58 293.46C1026.3 293.328 1027.65 291.899 1027.65 290.162C1027.65 288.315 1026.14 286.842 1024.31 286.842C1024.18 286.842 1024.07 286.842 1023.96 286.864C1025.28 287.018 1026.32 288.139 1026.32 289.503C1026.32 290.976 1025.13 292.163 1023.65 292.163C1022.28 292.163 1021.15 291.13 1021 289.832C1020.98 289.942 1020.98 290.074 1020.98 290.184C1020.98 291.921 1022.32 293.35 1024.05 293.504C1024.05 293.57 1024.02 293.658 1024.02 293.724C1023.85 293.834 1023.74 294.01 1023.74 294.208C1023.74 294.362 1023.8 294.494 1023.89 294.604H1024.05C1024.02 294.823 1024 295.043 1023.98 295.285H1023.96C1023.76 295.439 1023.63 295.659 1023.63 295.945C1023.63 296.165 1023.71 296.341 1023.85 296.494H1023.87C1023.85 296.758 1023.8 297.044 1023.78 297.286H1023.69C1023.41 297.506 1023.23 297.858 1023.23 298.231C1023.23 298.561 1023.36 298.847 1023.56 299.067C1023.49 299.375 1023.41 299.814 1023.27 300.298C1023.18 300.65 1023.1 301.024 1023.01 301.419C1021 302.035 1019.54 303.882 1019.54 306.081C1019.54 306.103 1019.54 306.125 1019.54 306.125C1018.99 306.454 1018.26 306.894 1017.29 307.488C1016.96 307.686 1016.63 307.906 1016.25 308.147C1014.7 309.115 1013.27 310.06 1012.08 311.182C1010.11 313.006 1008.79 315.249 1008.7 318.613C1008.7 318.767 1008.7 318.899 1008.7 319.031C1007.51 319.273 1006.4 319.712 1005.39 320.284V309.445H1006.09V307.488H1005.05C1005.1 307.026 1005.14 306.564 1005.14 306.081C1005.14 299.639 1000.37 294.318 994.167 293.372C993.902 292.713 993.306 292.229 992.577 292.097L992.158 279.653L991.606 292.141C990.987 292.317 990.479 292.757 990.236 293.35C987.918 293.702 985.82 294.67 984.075 296.055C982.573 294.626 980.674 293.614 978.576 293.196C978.576 293.064 978.576 292.911 978.576 292.779C978.422 287.37 975.109 284.885 971.024 282.313C969.522 281.368 968.462 280.73 967.733 280.29C967.733 280.268 967.733 280.246 967.733 280.246C967.733 278.047 966.276 276.201 964.266 275.585C964.068 274.749 963.869 273.936 963.758 273.408C963.736 273.342 963.736 273.298 963.714 273.232C963.913 273.013 964.046 272.727 964.046 272.397C964.046 272.001 963.869 271.671 963.582 271.451H963.493C963.471 271.21 963.427 270.946 963.405 270.66H963.427C963.56 270.506 963.648 270.33 963.648 270.11C963.648 269.846 963.516 269.605 963.317 269.451H963.295C963.273 269.231 963.251 268.989 963.228 268.769H963.251C963.339 268.659 963.405 268.527 963.405 268.373C963.405 268.175 963.295 267.978 963.118 267.89C963.118 267.802 963.096 267.736 963.096 267.67C964.818 267.538 966.166 266.109 966.166 264.372C966.166 262.525 964.664 261.052 962.831 261.052C962.698 261.052 962.588 261.052 962.478 261.074C963.803 261.228 964.841 262.349 964.841 263.712C964.841 265.185 963.648 266.373 962.168 266.373C960.799 266.373 959.673 265.339 959.518 264.02C959.496 264.13 959.496 264.262 959.496 264.372C959.496 266.109 960.843 267.538 962.566 267.692C962.566 267.758 962.544 267.846 962.544 267.912C962.367 268.022 962.257 268.197 962.257 268.395C962.257 268.549 962.323 268.681 962.411 268.791H962.456C962.433 269.011 962.411 269.231 962.389 269.473H962.367C962.168 269.627 962.036 269.846 962.036 270.132C962.036 270.352 962.124 270.528 962.257 270.682H962.213C962.191 270.946 962.146 271.232 962.124 271.473H962.036C961.749 271.693 961.572 272.045 961.572 272.419C961.572 272.749 961.705 273.035 961.903 273.254C961.837 273.562 961.749 274.002 961.616 274.486C961.528 274.837 961.44 275.211 961.351 275.607C959.342 276.223 957.884 278.069 957.884 280.268C957.884 280.29 957.884 280.312 957.884 280.312C957.332 280.642 956.603 281.082 955.632 281.675C955.301 281.873 954.969 282.093 954.594 282.335C953.048 283.302 951.613 284.248 950.42 285.369C948.455 287.194 947.13 289.415 947.041 292.801C947.041 292.955 947.041 293.086 947.041 293.218C944.944 293.636 943.044 294.67 941.543 296.077C939.798 294.67 937.7 293.724 935.381 293.372C935.138 292.779 934.631 292.339 934.012 292.163L933.46 279.675L933.041 292.119C932.334 292.251 931.738 292.735 931.451 293.394C925.245 294.34 920.475 299.661 920.475 306.103C920.475 306.586 920.519 307.048 920.563 307.51H919.526V309.467H920.232V320.306C919.216 319.734 918.09 319.295 916.92 319.053C916.92 318.921 916.92 318.767 916.92 318.635C916.765 313.204 913.453 310.742 909.367 308.169C907.866 307.224 906.806 306.586 906.077 306.147C906.077 306.125 906.077 306.103 906.077 306.103C906.077 303.904 904.619 302.057 902.61 301.441C902.411 300.606 902.212 299.792 902.102 299.265C902.08 299.199 902.08 299.155 902.058 299.089C902.256 298.869 902.389 298.583 902.389 298.253C902.389 297.858 902.212 297.528 901.925 297.308H901.837C901.815 297.066 901.771 296.802 901.748 296.516H901.771C901.903 296.362 901.991 296.187 901.991 295.967C901.991 295.703 901.859 295.461 901.66 295.307H901.638C901.616 295.087 901.594 294.845 901.572 294.626H901.594C901.682 294.516 901.748 294.384 901.748 294.23C901.748 294.032 901.638 293.834 901.461 293.746C901.461 293.658 901.439 293.592 901.439 293.526C903.162 293.394 904.509 291.965 904.509 290.228C904.509 288.381 903.007 286.908 901.174 286.908C901.042 286.908 900.931 286.908 900.821 286.93C902.146 287.084 903.162 288.205 903.162 289.569C903.162 291.042 901.969 292.229 900.49 292.229C899.121 292.229 897.994 291.196 897.84 289.898C897.818 290.008 897.818 290.14 897.818 290.25C897.818 291.987 899.165 293.416 900.887 293.57C900.887 293.636 900.865 293.724 900.865 293.79C900.711 293.9 900.578 294.076 900.578 294.274C900.578 294.428 900.644 294.56 900.733 294.67H900.755C900.733 294.889 900.711 295.109 900.688 295.351H900.666C900.468 295.505 900.335 295.725 900.335 296.011C900.335 296.231 900.424 296.406 900.556 296.56H900.578C900.556 296.824 900.512 297.11 900.49 297.352H900.401C900.114 297.572 899.938 297.924 899.938 298.297C899.938 298.627 900.07 298.913 900.269 299.133C900.203 299.441 900.114 299.88 899.982 300.364C899.893 300.716 899.805 301.09 899.717 301.485C897.707 302.101 896.25 303.948 896.25 306.147C896.25 306.169 896.25 306.191 896.25 306.191C895.698 306.52 894.969 306.96 893.997 307.554C893.666 307.752 893.335 307.972 892.959 308.213C891.413 309.181 889.978 310.126 888.786 311.248C886.82 313.072 885.495 315.315 885.407 318.679C885.407 318.833 885.407 318.965 885.407 319.097C883.309 319.515 881.41 320.548 879.908 321.955C878.164 320.548 876.066 319.603 873.747 319.251C873.504 318.657 872.996 318.217 872.378 318.041L871.826 305.553L871.406 317.997C870.699 318.129 870.103 318.613 869.816 319.273C865.178 319.976 861.358 323.12 859.724 327.342C858.73 326.638 857.538 326.133 856.279 325.935C856.102 325.539 855.749 325.231 855.307 325.143L855.042 317.448L854.689 325.187C854.313 325.297 853.982 325.583 853.85 325.935C852.414 326.155 851.111 326.748 850.029 327.606C849.102 326.726 847.931 326.089 846.628 325.825C846.628 325.737 846.628 325.649 846.628 325.561C846.54 322.197 844.486 320.658 841.947 319.097C841.019 318.525 840.357 318.129 839.915 317.844V317.822C839.915 316.458 839.01 315.315 837.773 314.941C837.641 314.414 837.53 313.93 837.442 313.578C837.442 313.534 837.42 313.512 837.42 313.468C837.552 313.336 837.618 313.16 837.618 312.963C837.618 312.721 837.508 312.523 837.331 312.369H837.265C837.243 312.215 837.221 312.061 837.221 311.885C837.309 311.797 837.353 311.687 837.353 311.555C837.353 311.379 837.265 311.248 837.155 311.16H837.133C837.111 311.028 837.111 310.874 837.088 310.742H837.111C837.177 310.676 837.199 310.588 837.199 310.5C837.199 310.368 837.133 310.258 837.022 310.192C837.022 310.148 837.022 310.104 837 310.06C838.06 309.972 838.899 309.093 838.899 308.015C838.899 306.872 837.972 305.949 836.823 305.949C836.757 305.949 836.669 305.949 836.603 305.971C837.42 306.059 838.06 306.762 838.06 307.598C838.06 308.499 837.331 309.247 836.404 309.247C835.565 309.247 834.858 308.609 834.77 307.796C834.77 307.862 834.748 307.95 834.748 308.015C834.748 309.093 835.587 309.972 836.647 310.06C836.647 310.104 836.647 310.148 836.625 310.192C836.514 310.258 836.448 310.368 836.448 310.5C836.448 310.588 836.492 310.676 836.536 310.742H836.558C836.536 310.874 836.536 311.028 836.514 311.16H836.492C836.36 311.248 836.293 311.401 836.293 311.555C836.293 311.687 836.338 311.797 836.426 311.885C836.404 312.061 836.382 312.215 836.382 312.369H836.316C836.139 312.501 836.028 312.721 836.028 312.963C836.028 313.16 836.117 313.336 836.227 313.468C836.183 313.666 836.139 313.93 836.051 314.238C836.006 314.458 835.94 314.699 835.874 314.919C834.637 315.293 833.732 316.458 833.732 317.8C833.732 317.822 833.732 317.822 833.732 317.822C833.378 318.019 832.937 318.305 832.341 318.679C832.142 318.811 831.921 318.943 831.7 319.075C830.751 319.668 829.845 320.262 829.116 320.944C827.902 322.065 827.085 323.45 827.018 325.539C827.018 325.627 827.018 325.715 827.018 325.803C825.716 326.067 824.545 326.704 823.618 327.584C822.536 326.726 821.233 326.133 819.797 325.913C819.643 325.539 819.333 325.275 818.958 325.165L818.605 317.426L818.34 325.121C817.898 325.209 817.523 325.495 817.368 325.913C813.526 326.506 810.566 329.804 810.566 333.784C810.566 334.07 810.588 334.356 810.611 334.641H809.97V335.851H810.412V342.557C809.771 342.205 809.087 341.919 808.358 341.787C808.358 341.699 808.358 341.611 808.358 341.523C808.27 338.159 806.216 336.62 803.676 335.059C803.544 334.971 803.411 334.905 803.301 334.817V305.201C803.301 304.058 803.787 303.046 804.538 302.321V300.738H805.576C805.531 300.276 805.487 299.814 805.487 299.331C805.487 296.253 806.569 293.438 808.358 291.218V273.21H807.806V271.517H807.099V265.691H807.784V264.789H808.601C808.601 264.789 808.601 260.37 808.601 259.315C808.601 258.391 808.137 257.842 807.784 257.556V256.391H806.503V254.698H807.673V252.081H807.298V250.41H808.733V249.882C808.557 249.838 808.424 249.685 808.424 249.487C808.424 249.311 808.535 249.179 808.689 249.113C808.491 248.915 808.203 248.475 808.226 247.64C808.27 246.431 808.998 245.881 809.926 245.309C810.368 245.023 810.633 244.869 810.809 244.781C810.831 244.76 810.876 244.76 810.898 244.738C810.831 244.716 810.809 244.672 810.809 244.65C810.809 244.584 811.008 244.518 811.295 244.474C811.361 244.21 811.516 243.594 811.582 243.308C811.582 243.286 811.582 243.286 811.582 243.264C811.538 243.22 811.516 243.154 811.516 243.089C811.516 243.001 811.56 242.935 811.626 242.869H811.648C811.648 242.803 811.671 242.759 811.671 242.693C811.648 242.671 811.626 242.627 811.626 242.561C811.626 242.495 811.648 242.451 811.693 242.407C811.693 242.363 811.715 242.297 811.715 242.253C811.693 242.231 811.671 242.209 811.671 242.165C811.671 242.121 811.693 242.077 811.737 242.055C811.737 242.033 811.737 242.011 811.737 242.011C811.361 241.989 811.052 241.659 811.052 241.264C811.052 240.846 811.383 240.516 811.803 240.516C811.825 240.516 811.847 240.516 811.891 240.516C811.604 240.56 811.361 240.802 811.361 241.11C811.361 241.44 811.626 241.703 811.958 241.703C812.267 241.703 812.51 241.483 812.554 241.176C812.554 241.198 812.554 241.22 812.554 241.264C812.554 241.659 812.245 241.967 811.869 242.011C811.869 242.033 811.869 242.055 811.869 242.055C811.913 242.077 811.936 242.121 811.936 242.165C811.936 242.209 811.913 242.231 811.891 242.253C811.891 242.297 811.891 242.363 811.913 242.407C811.958 242.429 811.98 242.495 811.98 242.561C811.98 242.605 811.958 242.649 811.936 242.693C811.936 242.759 811.958 242.803 811.958 242.869H811.98C812.046 242.913 812.09 243.001 812.09 243.089C812.09 243.154 812.068 243.22 812.024 243.264C812.046 243.33 812.068 243.44 812.09 243.55C812.156 243.858 812.267 244.276 812.333 244.474C812.62 244.518 812.819 244.562 812.819 244.65C812.819 244.672 812.775 244.716 812.731 244.738C812.753 244.76 812.775 244.76 812.819 244.781C812.863 244.803 812.885 244.825 812.951 244.847C813.084 244.913 813.238 245.023 813.459 245.155C813.526 245.199 813.614 245.243 813.702 245.309C814.056 245.529 814.365 245.749 814.63 245.991C815.071 246.409 815.358 246.892 815.381 247.662C815.381 247.948 815.358 248.167 815.314 248.365C815.226 248.739 815.049 248.981 814.917 249.113C815.071 249.179 815.182 249.333 815.182 249.487C815.182 249.685 815.049 249.838 814.873 249.882V250.41H816.308V252.081H815.933V254.698H817.103V256.391H815.822V257.93C815.579 258.237 815.381 258.699 815.381 259.315C815.381 260.414 815.381 264.789 815.381 264.789H815.822V265.691H816.507V271.517H815.8V273.21H815.248V286.82C815.712 286.688 816.176 286.6 816.661 286.512C816.926 285.853 817.523 285.369 818.251 285.237L818.671 272.727L819.223 285.303C819.841 285.479 820.349 285.941 820.614 286.512C821.166 286.6 821.718 286.71 822.248 286.864V277.696H821.056V274.332H822.823C822.734 273.54 822.668 272.749 822.668 271.935C822.668 260.898 830.839 251.751 841.483 250.146C841.947 249.025 842.963 248.189 844.199 247.97L844.928 226.642L845.878 248.058C846.938 248.365 847.821 249.135 848.241 250.124C858.885 251.751 867.056 260.876 867.056 271.913C867.056 272.727 866.989 273.518 866.901 274.31H868.071V277.674H867.343V289.415C867.983 288.975 868.668 288.535 869.374 288.095C869.728 287.876 870.081 287.656 870.39 287.458C870.434 283.39 873.416 280.004 877.324 279.323C877.457 278.795 877.567 278.311 877.633 277.938C877.656 277.872 877.656 277.806 877.678 277.74C877.435 277.498 877.302 277.168 877.302 276.794C877.302 276.355 877.501 275.959 877.832 275.717H877.943C877.965 275.431 878.009 275.123 878.031 274.815H878.009C877.854 274.662 877.766 274.442 877.766 274.2C877.766 273.892 877.921 273.628 878.141 273.452H878.163C878.186 273.188 878.208 272.925 878.252 272.683H878.208C878.097 272.573 878.031 272.419 878.031 272.243C878.031 272.001 878.163 271.803 878.34 271.693C878.34 271.605 878.362 271.517 878.362 271.429C876.419 271.276 874.873 269.649 874.873 267.67C874.873 265.581 876.573 263.888 878.671 263.888C878.804 263.888 878.936 263.888 879.091 263.91C877.589 264.086 876.419 265.361 876.419 266.9C876.419 268.571 877.766 269.912 879.444 269.912C880.99 269.912 882.271 268.747 882.448 267.252C882.47 267.384 882.47 267.516 882.47 267.67C882.47 269.649 880.924 271.276 878.981 271.429C878.981 271.517 879.003 271.605 879.003 271.693C879.201 271.803 879.312 272.001 879.312 272.243C879.312 272.419 879.246 272.573 879.135 272.683H879.091C879.113 272.925 879.135 273.188 879.179 273.452H879.201C879.422 273.628 879.577 273.892 879.577 274.2C879.577 274.442 879.488 274.662 879.334 274.815H879.312C879.334 275.123 879.378 275.431 879.4 275.717H879.511C879.842 275.981 880.041 276.355 880.041 276.794C880.041 277.168 879.886 277.498 879.665 277.74C879.731 278.091 879.842 278.575 879.974 279.147C879.996 279.191 879.996 279.235 880.019 279.279C884.06 279.894 887.151 283.368 887.151 287.546C887.416 287.7 887.681 287.876 887.969 288.051C888.786 288.557 889.581 289.085 890.331 289.613C891.038 279.257 898.922 270.902 909.08 269.341C909.544 268.219 910.56 267.384 911.796 267.164L912.525 245.837L913.475 267.252C914.535 267.56 915.418 268.329 915.838 269.319C918.112 269.671 920.298 270.352 922.286 271.342V258.04H921.734V256.347H921.027V250.52H921.712V249.619H922.153C922.153 249.619 922.153 245.243 922.153 244.144C922.153 243.528 921.955 243.067 921.712 242.759V241.22H920.431V239.527H921.601V236.91H921.226V235.327H922.661V234.799C922.485 234.756 922.352 234.602 922.352 234.404C922.352 234.228 922.463 234.074 922.617 234.03C922.485 233.898 922.308 233.656 922.22 233.282C922.176 233.085 922.153 232.843 922.153 232.579C922.176 231.831 922.463 231.326 922.904 230.908C923.169 230.666 923.501 230.446 923.832 230.226C923.92 230.182 923.986 230.116 924.075 230.072C924.296 229.94 924.472 229.83 924.583 229.765C924.627 229.743 924.671 229.721 924.715 229.699C924.737 229.677 924.781 229.655 924.803 229.655C924.737 229.633 924.715 229.589 924.715 229.567C924.715 229.501 924.914 229.435 925.201 229.391C925.245 229.193 925.356 228.775 925.444 228.467C925.466 228.357 925.488 228.269 925.51 228.181C925.466 228.138 925.444 228.072 925.444 228.006C925.444 227.918 925.488 227.852 925.554 227.786H925.576C925.576 227.72 925.598 227.676 925.598 227.61C925.576 227.588 925.554 227.544 925.554 227.478C925.554 227.412 925.576 227.368 925.621 227.324C925.621 227.28 925.643 227.214 925.643 227.17C925.621 227.148 925.598 227.126 925.598 227.082C925.598 227.038 925.621 226.994 925.665 226.972C925.665 226.95 925.665 226.928 925.665 226.928C925.289 226.906 924.98 226.576 924.98 226.181C924.98 226.159 924.98 226.137 924.98 226.093C925.024 226.379 925.267 226.62 925.576 226.62C925.908 226.62 926.173 226.357 926.173 226.027C926.173 225.719 925.952 225.477 925.643 225.433C925.665 225.433 925.687 225.433 925.731 225.433C926.151 225.433 926.482 225.763 926.482 226.181C926.482 226.576 926.173 226.884 925.797 226.928C925.797 226.95 925.797 226.972 925.797 226.972C925.841 226.994 925.863 227.038 925.863 227.082C925.863 227.126 925.841 227.148 925.819 227.17C925.819 227.214 925.819 227.28 925.841 227.324C925.886 227.346 925.908 227.412 925.908 227.478C925.908 227.522 925.886 227.566 925.863 227.61C925.863 227.676 925.886 227.72 925.886 227.786H925.908C925.974 227.83 926.018 227.918 926.018 228.006C926.018 228.072 925.996 228.138 925.952 228.181C925.952 228.203 925.952 228.203 925.952 228.225C926.018 228.511 926.173 229.127 926.239 229.391C926.526 229.435 926.725 229.479 926.725 229.567C926.725 229.589 926.681 229.633 926.636 229.655C926.658 229.677 926.681 229.677 926.725 229.699C926.879 229.787 927.166 229.962 927.608 230.226C928.514 230.798 929.264 231.348 929.308 232.579C929.331 233.392 929.043 233.832 928.845 234.052C928.999 234.118 929.11 234.272 929.11 234.426C929.11 234.624 928.977 234.778 928.801 234.821V235.327H930.236V236.998H929.861V239.615H931.031V241.308H929.75V242.473C929.397 242.759 928.933 243.308 928.933 244.232C928.933 245.287 928.933 249.707 928.933 249.707H929.75V250.608H930.435V256.434H929.728V258.127H929.176V271.957C931.208 270.616 933.504 269.649 935.978 269.143C935.978 268.901 935.978 268.659 935.978 268.417C936.132 262.635 938.407 258.809 941.763 255.687C943.817 253.796 946.268 252.147 948.918 250.498C949.559 250.102 950.155 249.729 950.707 249.377C952.341 248.365 953.6 247.596 954.55 247.024C954.55 247.002 954.55 246.958 954.55 246.936C954.55 243.176 957.045 239.988 960.49 238.933C960.667 238.273 960.821 237.614 960.954 237.02C961.153 236.163 961.329 235.437 961.44 234.887C961.086 234.514 960.866 234.03 960.866 233.458C960.866 232.799 961.175 232.205 961.661 231.831H961.815C961.859 231.414 961.904 230.952 961.97 230.468H961.948C961.705 230.226 961.572 229.896 961.572 229.523C961.572 229.061 961.793 228.665 962.146 228.401H962.191C962.235 228.006 962.279 227.61 962.301 227.236H962.235C962.08 227.06 961.97 226.818 961.97 226.576C961.97 226.225 962.168 225.917 962.456 225.741C962.478 225.609 962.478 225.477 962.5 225.367C959.563 225.125 957.244 222.685 957.244 219.695C957.244 219.497 957.266 219.277 957.288 219.079C957.553 221.344 959.474 223.103 961.815 223.103C964.333 223.103 966.386 221.058 966.386 218.551C966.386 216.221 964.62 214.308 962.345 214.044C962.544 214.022 962.765 214 962.964 214C966.121 214 968.683 216.55 968.683 219.695C968.683 222.685 966.364 225.125 963.427 225.367C963.449 225.499 963.449 225.609 963.471 225.741C963.758 225.917 963.957 226.225 963.957 226.576C963.957 226.84 963.847 227.06 963.692 227.236H963.626C963.67 227.61 963.714 228.006 963.736 228.401H963.781C964.134 228.643 964.355 229.061 964.355 229.523C964.355 229.896 964.2 230.226 963.979 230.468H963.957C964.001 230.93 964.046 231.392 964.112 231.831H964.266C964.752 232.205 965.061 232.799 965.061 233.458C965.061 234.008 964.841 234.514 964.487 234.887C964.509 234.975 964.531 235.085 964.553 235.173C964.752 236.097 965.083 237.482 965.437 238.911C968.882 239.966 971.377 243.154 971.377 246.914C971.377 246.936 971.377 246.98 971.377 247.002C972.658 247.75 974.469 248.871 977.031 250.454C984.031 254.829 989.706 259.095 989.971 268.373C989.971 268.615 989.971 268.857 989.971 269.099C992.445 269.605 994.741 270.572 996.751 271.913V258.083H996.199V256.391H995.492V250.564H996.177V249.663H996.618C996.618 249.663 996.618 245.287 996.618 244.188C996.618 243.55 996.42 243.111 996.177 242.803V241.264H994.896V239.571H996.066V236.954H995.691V235.327H997.126V234.799C996.95 234.756 996.817 234.602 996.817 234.404C996.817 234.228 996.928 234.074 997.082 234.03C996.95 233.898 996.773 233.656 996.685 233.282C996.641 233.085 996.618 232.843 996.618 232.579C996.641 231.831 996.928 231.326 997.369 230.908C997.634 230.666 997.966 230.446 998.297 230.226C998.385 230.182 998.451 230.116 998.54 230.072C998.761 229.94 998.937 229.83 999.048 229.765C999.092 229.743 999.136 229.721 999.18 229.699C999.202 229.677 999.246 229.677 999.268 229.655C999.202 229.633 999.18 229.589 999.18 229.567C999.18 229.501 999.379 229.435 999.666 229.391C999.71 229.193 999.821 228.775 999.909 228.467C999.931 228.357 999.953 228.269 999.975 228.181C999.931 228.138 999.909 228.072 999.909 228.006C999.909 227.918 999.953 227.852 1000.02 227.786H1000.04C1000.04 227.72 1000.06 227.676 1000.06 227.61C1000.04 227.588 1000.02 227.544 1000.02 227.478C1000.02 227.412 1000.04 227.368 1000.09 227.324C1000.09 227.28 1000.09 227.214 1000.11 227.17C1000.09 227.148 1000.06 227.126 1000.06 227.082C1000.06 227.038 1000.09 226.994 1000.13 226.972C1000.13 226.95 1000.13 226.928 1000.13 226.928C999.754 226.906 999.445 226.576 999.445 226.181C999.445 226.159 999.445 226.137 999.445 226.093C999.489 226.379 999.732 226.62 1000.04 226.62C1000.37 226.62 1000.64 226.357 1000.64 226.027C1000.64 225.719 1000.42 225.477 1000.11 225.433C1000.13 225.433 1000.15 225.433 1000.2 225.433C1000.62 225.433 1000.95 225.763 1000.95 226.181C1000.95 226.576 1000.64 226.884 1000.26 226.928C1000.26 226.95 1000.26 226.972 1000.26 226.972C1000.31 226.994 1000.33 227.038 1000.33 227.082C1000.33 227.126 1000.31 227.148 1000.28 227.17C1000.28 227.214 1000.28 227.28 1000.31 227.324C1000.35 227.346 1000.37 227.412 1000.37 227.478C1000.37 227.522 1000.35 227.566 1000.33 227.61C1000.33 227.676 1000.35 227.742 1000.35 227.786H1000.37C1000.44 227.83 1000.48 227.918 1000.48 228.006C1000.48 228.072 1000.46 228.138 1000.42 228.181C1000.42 228.203 1000.42 228.203 1000.42 228.225C1000.48 228.511 1000.64 229.127 1000.7 229.391C1000.99 229.435 1001.19 229.479 1001.19 229.567C1001.19 229.589 1001.15 229.633 1001.1 229.655C1001.12 229.677 1001.15 229.677 1001.19 229.699C1001.34 229.787 1001.63 229.962 1002.07 230.226C1002.98 230.798 1003.73 231.348 1003.77 232.557C1003.8 233.37 1003.51 233.81 1003.31 234.03C1003.46 234.096 1003.57 234.25 1003.57 234.404C1003.57 234.602 1003.44 234.756 1003.27 234.799V235.327H1004.7V236.998H1004.33V239.615H1005.5V241.308H1004.22V242.473C1003.86 242.759 1003.4 243.308 1003.4 244.232C1003.4 245.287 1003.4 249.707 1003.4 249.707H1004.22V250.608H1004.9V256.434H1004.19V258.127H1003.64V271.429C1005.65 270.44 1007.81 269.758 1010.09 269.407C1010.51 268.395 1011.37 267.648 1012.45 267.34L1013.4 245.925L1014.13 267.252C1015.37 267.472 1016.36 268.307 1016.85 269.429C1026.98 270.968 1034.89 279.345 1035.6 289.7C1036.35 289.173 1037.14 288.667 1037.96 288.139C1038.25 287.964 1038.51 287.788 1038.78 287.634C1038.78 283.434 1041.87 279.96 1045.93 279.367C1045.95 279.323 1045.95 279.279 1045.95 279.235C1046.09 278.663 1046.2 278.179 1046.26 277.828C1046.02 277.586 1045.89 277.256 1045.89 276.882C1045.89 276.442 1046.09 276.047 1046.42 275.805H1046.53C1046.55 275.519 1046.59 275.211 1046.62 274.903H1046.59C1046.44 274.749 1046.35 274.53 1046.35 274.288C1046.35 273.98 1046.5 273.716 1046.73 273.54H1046.75C1046.77 273.276 1046.79 273.013 1046.84 272.771H1046.79C1046.68 272.661 1046.62 272.507 1046.62 272.331C1046.62 272.089 1046.75 271.891 1046.92 271.781C1046.92 271.693 1046.95 271.605 1046.95 271.517C1045 271.364 1043.46 269.736 1043.46 267.758C1043.46 267.626 1043.46 267.472 1043.48 267.34C1043.66 268.835 1044.94 270 1046.48 270C1048.16 270 1049.51 268.659 1049.51 266.988C1049.51 265.449 1048.34 264.174 1046.84 263.998C1046.97 263.976 1047.1 263.976 1047.26 263.976C1049.35 263.976 1051.05 265.669 1051.05 267.758C1051.05 269.736 1049.53 271.364 1047.56 271.517C1047.56 271.605 1047.59 271.693 1047.59 271.781C1047.79 271.891 1047.9 272.089 1047.9 272.331C1047.9 272.507 1047.83 272.661 1047.72 272.771H1047.68C1047.7 273.013 1047.72 273.276 1047.76 273.54H1047.79C1048.01 273.716 1048.16 273.98 1048.16 274.288C1048.16 274.53 1048.07 274.749 1047.92 274.903H1047.9C1047.92 275.211 1047.96 275.519 1047.98 275.805H1048.09C1048.43 276.069 1048.62 276.442 1048.62 276.882C1048.62 277.256 1048.47 277.586 1048.25 277.828C1048.27 277.894 1048.27 277.96 1048.29 278.026C1048.38 278.399 1048.49 278.883 1048.6 279.411C1052.51 280.092 1055.49 283.456 1055.54 287.546C1055.85 287.744 1056.2 287.942 1056.55 288.183C1057.26 288.623 1057.92 289.063 1058.58 289.503V277.806H1057.86V274.442H1059.03C1058.94 273.65 1058.87 272.859 1058.87 272.045C1058.87 261.008 1067.04 251.861 1077.69 250.256C1078.11 249.245 1078.97 248.497 1080.05 248.189L1081 226.774L1081.73 248.102C1082.96 248.321 1083.98 249.157 1084.44 250.278C1095.09 251.905 1103.26 261.03 1103.26 272.067C1103.26 272.881 1103.19 273.672 1103.1 274.464H1104.87V277.828H1103.68V286.93C1104.12 286.82 1104.58 286.71 1105.05 286.644C1105.29 286.051 1105.8 285.611 1106.44 285.435L1106.99 272.859L1107.41 285.369C1108.14 285.501 1108.74 285.985 1109 286.644C1109.49 286.71 1109.95 286.82 1110.41 286.952V273.342H1109.86V271.649H1109.16V265.823H1109.84V264.921H1110.28C1110.28 264.921 1110.28 260.546 1110.28 259.447C1110.28 258.831 1110.08 258.369 1109.84 258.062V256.522H1108.56V254.829H1109.73V252.213H1109.35V250.542H1110.79V250.014C1110.61 249.97 1110.48 249.816 1110.48 249.619C1110.48 249.443 1110.59 249.289 1110.75 249.245C1110.61 249.113 1110.44 248.871 1110.35 248.497C1110.3 248.299 1110.26 248.058 1110.28 247.794C1110.3 247.046 1110.59 246.54 1111.03 246.123C1111.3 245.881 1111.63 245.661 1111.96 245.441C1112.05 245.397 1112.11 245.331 1112.2 245.287C1112.42 245.155 1112.6 245.045 1112.71 244.979C1112.75 244.957 1112.8 244.935 1112.84 244.913C1112.87 244.891 1112.91 244.869 1112.93 244.869C1112.87 244.847 1112.84 244.803 1112.84 244.781C1112.84 244.716 1113.04 244.65 1113.33 244.606C1113.37 244.408 1113.48 243.99 1113.57 243.682C1113.59 243.572 1113.62 243.484 1113.64 243.396C1113.59 243.352 1113.57 243.286 1113.57 243.22C1113.57 243.132 1113.62 243.067 1113.68 243.001H1113.7C1113.7 242.935 1113.73 242.891 1113.73 242.825C1113.7 242.803 1113.68 242.759 1113.68 242.693C1113.68 242.627 1113.7 242.583 1113.75 242.539C1113.75 242.495 1113.77 242.429 1113.77 242.385C1113.75 242.363 1113.73 242.341 1113.73 242.297C1113.73 242.253 1113.75 242.209 1113.79 242.187C1113.79 242.165 1113.79 242.143 1113.79 242.143C1113.42 242.121 1113.11 241.791 1113.11 241.396C1113.11 241.374 1113.11 241.352 1113.11 241.308C1113.15 241.593 1113.4 241.835 1113.7 241.835C1114.04 241.835 1114.3 241.571 1114.3 241.242C1114.3 240.934 1114.08 240.692 1113.77 240.648C1113.79 240.648 1113.81 240.648 1113.86 240.648C1114.28 240.648 1114.61 240.978 1114.61 241.396C1114.61 241.791 1114.3 242.099 1113.93 242.143C1113.93 242.165 1113.93 242.187 1113.93 242.187C1113.97 242.209 1113.99 242.253 1113.99 242.297C1113.99 242.341 1113.97 242.363 1113.95 242.385C1113.95 242.429 1113.95 242.495 1113.97 242.539C1114.01 242.561 1114.04 242.627 1114.04 242.693C1114.04 242.737 1114.01 242.781 1113.99 242.825C1113.99 242.891 1114.01 242.935 1114.01 243.001H1114.04C1114.1 243.045 1114.15 243.132 1114.15 243.22C1114.15 243.286 1114.12 243.352 1114.08 243.396C1114.08 243.418 1114.08 243.418 1114.08 243.44C1114.15 243.726 1114.3 244.342 1114.37 244.606C1114.65 244.65 1114.85 244.694 1114.85 244.781C1114.85 244.803 1114.81 244.847 1114.76 244.869C1114.79 244.891 1114.81 244.891 1114.85 244.913C1115.01 245.001 1115.29 245.177 1115.74 245.441C1116.64 246.013 1117.39 246.562 1117.44 247.794C1117.46 248.607 1117.17 249.047 1116.97 249.267C1117.13 249.333 1117.24 249.487 1117.24 249.641C1117.24 249.838 1117.11 249.992 1116.93 250.036V250.564H1118.36V252.235H1117.99V254.851H1119.16V256.544H1117.88V257.71C1117.52 257.996 1117.06 258.545 1117.06 259.469C1117.06 260.524 1117.06 264.943 1117.06 264.943H1117.46V265.845H1118.14V271.671H1117.44V273.364H1116.88V291.371C1118.67 293.592 1119.76 296.406 1119.76 299.485C1119.76 299.968 1119.71 300.43 1119.67 300.892H1120.7V302.255C1121.61 302.981 1122.21 304.102 1122.21 305.355V334.927C1122.1 334.993 1121.96 335.081 1121.83 335.169C1120.88 335.609 1120 336.203 1119.25 336.884ZM811.671 259.337C811.671 257.908 810.5 257.336 810.5 257.336C810.5 257.336 809.33 257.842 809.33 259.337C809.33 260.436 809.33 264.811 809.33 264.811H811.648C811.671 264.811 811.671 260.37 811.671 259.337ZM814.652 259.337C814.652 257.908 813.481 257.336 813.481 257.336C813.481 257.336 812.311 257.842 812.311 259.337C812.311 260.436 812.311 264.811 812.311 264.811H814.63C814.652 264.811 814.652 260.37 814.652 259.337ZM925.113 244.21C925.113 242.737 923.942 242.209 923.942 242.209C923.942 242.209 922.772 242.759 922.772 244.21C922.772 245.265 922.772 249.685 922.772 249.685H925.113C925.113 249.685 925.113 245.331 925.113 244.21ZM928.094 244.21C928.094 242.737 926.923 242.209 926.923 242.209C926.923 242.209 925.753 242.759 925.753 244.21C925.753 245.265 925.753 249.685 925.753 249.685H928.072C928.094 249.685 928.094 245.331 928.094 244.21ZM999.445 244.21C999.445 242.737 998.275 242.209 998.275 242.209C998.275 242.209 997.104 242.759 997.104 244.21C997.104 245.265 997.104 249.685 997.104 249.685H999.423C999.445 249.685 999.445 245.331 999.445 244.21ZM1002.43 244.21C1002.43 242.737 1001.26 242.209 1001.26 242.209C1001.26 242.209 1000.09 242.759 1000.09 244.21C1000.09 245.265 1000.09 249.685 1000.09 249.685H1002.4C1002.43 249.685 1002.43 245.331 1002.43 244.21ZM1113 259.337C1113 257.864 1111.83 257.336 1111.83 257.336C1111.83 257.336 1110.66 257.886 1110.66 259.337C1110.66 260.392 1110.66 264.811 1110.66 264.811H1112.98C1113 264.811 1113 260.436 1113 259.337ZM1115.98 259.337C1115.98 257.864 1114.81 257.336 1114.81 257.336C1114.81 257.336 1113.64 257.886 1113.64 259.337C1113.64 260.392 1113.64 264.811 1113.64 264.811H1115.96C1115.98 264.811 1115.98 260.436 1115.98 259.337Z" fill="#625436"/>
</g>
<rect width="1920" height="68" transform="matrix(-1 0 0 1 1920 313)" fill="#625436"/>
</svg>
