<svg width="1921" height="65" viewBox="0 0 1921 65" fill="none" xmlns="http://www.w3.org/2000/svg">
<path fill-rule="evenodd" clip-rule="evenodd" d="M4.2 10.7H9.9H38.7H67.5H73.3V16.3999V39.5999V45.2999H67.5H49.2V39.5999V36.8999V31.0999H54.9H59.2V24.7H46.7V48.3999H75.6V54.0999H46.7H41V48.3999V24.7V19.0999H46.7H59.2H64.8V24.7V31.0999V36.8999H59.2H54.9V39.5999H67.5V16.3999H38.7H9.9V39.5999H22.5V36.8999H18.2H12.6V31.0999V24.7V19.0999H18.2H30.7H36.4V24.7V48.3999V54.0999H30.7H0V48.3999H30.7V24.7H18.2V31.0999H22.5H28.2V36.8999V39.5999V45.2999H9.9H4.2V39.5999V16.3999V10.7Z" fill="#E0BE74"/>
<path fill-rule="evenodd" clip-rule="evenodd" d="M147 10.7H141.3H112.4H83.6001H77.8001V16.3999V39.5999V45.2999H83.6001H101.9V39.5999V36.8999V31.0999H96.3001H92.0001V24.7H104.5V48.3999H75.6001V54.0999H104.5H110.1V48.3999V24.7V19.0999H104.5H92.0001H86.3001V24.7V31.0999V36.8999H92.0001H96.3001V39.5999H83.6001V16.3999H112.4H141.3V39.5999H128.6V36.8999H132.9H138.6V31.0999V24.7V19.0999H132.9H120.4H114.8V24.7V48.3999V54.0999H120.4H149.3V48.3999H120.4V24.7H132.9V31.0999H128.6H123V36.8999V39.5999V45.2999H141.3H147V39.5999V16.3999V10.7Z" fill="#E0BE74"/>
<path fill-rule="evenodd" clip-rule="evenodd" d="M151.6 10.7H157.3H186.2H215H220.7V16.3999V39.5999V45.2999H215H196.6V39.5999V36.8999V31.0999H202.3H206.7V24.7H194.2V48.3999H223V54.0999H194.2H188.4V48.3999V24.7V19.0999H194.2H206.7H212.3V24.7V31.0999V36.8999H206.7H202.3V39.5999H215V16.3999H186.2H157.3V39.5999H170V36.8999H165.7H160V31.0999V24.7V19.0999H165.7H178.1H183.9V24.7V48.3999V54.0999H178.1H149.3V48.3999H178.1V24.7H165.7V31.0999H170H175.7V36.8999V39.5999V45.2999H157.3H151.6V39.5999V16.3999V10.7Z" fill="#E0BE74"/>
<path fill-rule="evenodd" clip-rule="evenodd" d="M225.3 10.7H231H259.9H288.8H294.5V16.3999V39.5999V45.2999H288.8H270.4V39.5999V36.8999V31.0999H276.1H280.3V24.7H267.9V48.3999H296.7V54.0999H267.9H262.2V48.3999V24.7V19.0999H267.9H280.3H286V24.7V31.0999V36.8999H280.3H276.1V39.5999H288.8V16.3999H259.9H231V39.5999H243.7V36.8999H239.4H233.7V31.0999V24.7V19.0999H239.4H251.9H257.6V24.7V48.3999V54.0999H251.9H223V48.3999H251.9V24.7H239.4V31.0999H243.7H249.4V36.8999V39.5999V45.2999H231H225.3V39.5999V16.3999V10.7Z" fill="#E0BE74"/>
<path fill-rule="evenodd" clip-rule="evenodd" d="M299.1 10.7H304.8H333.7H362.5H368.1V16.3999V39.5999V45.2999H362.5H344.1V39.5999V36.8999V31.0999H349.8H354.1V24.7H341.6V48.3999H370.5V54.0999H341.6H335.9V48.3999V24.7V19.0999H341.6H354.1H359.8V24.7V31.0999V36.8999H354.1H349.8V39.5999H362.5V16.3999H333.7H304.8V39.5999H317.4V36.8999H313.1H307.5V31.0999V24.7V19.0999H313.1H325.6H331.3V24.7V48.3999V54.0999H325.6H296.7V48.3999H325.6V24.7H313.1V31.0999H317.4H323.1V36.8999V39.5999V45.2999H304.8H299.1V39.5999V16.3999V10.7Z" fill="#E0BE74"/>
<path fill-rule="evenodd" clip-rule="evenodd" d="M372.8 10.7H378.4H407.3H436.2H441.9V16.3999V39.5999V45.2999H436.2H417.8V39.5999V36.8999V31.0999H423.6H427.8V24.7H415.4V48.3999H444.2V54.0999H415.4H409.7V48.3999V24.7V19.0999H415.4H427.8H433.5V24.7V31.0999V36.8999H427.8H423.6V39.5999H436.2V16.3999H407.3H378.4V39.5999H391.2V36.8999H386.9H381.2V31.0999V24.7V19.0999H386.9H399.4H405.1V24.7V48.3999V54.0999H399.4H370.5V48.3999H399.4V24.7H386.9V31.0999H391.2H396.8V36.8999V39.5999V45.2999H378.4H372.8V39.5999V16.3999V10.7Z" fill="#E0BE74"/>
<path fill-rule="evenodd" clip-rule="evenodd" d="M446.5 10.7H452.2H481.1H510H515.6V16.3999V39.5999V45.2999H510H491.5V39.5999V36.8999V31.0999H497.2H501.5V24.7H489.1V48.3999H517.9V54.0999H489.1H483.3V48.3999V24.7V19.0999H489.1H501.5H507.3V24.7V31.0999V36.8999H501.5H497.2V39.5999H510V16.3999H481.1H452.2V39.5999H464.9V36.8999H460.6H454.9V31.0999V24.7V19.0999H460.6H473H478.8V24.7V48.3999V54.0999H473H444.2V48.3999H473V24.7H460.6V31.0999H464.9H470.6V36.8999V39.5999V45.2999H452.2H446.5V39.5999V16.3999V10.7Z" fill="#E0BE74"/>
<path fill-rule="evenodd" clip-rule="evenodd" d="M520.3 10.7H525.9H554.8H583.6H589.4V16.3999V39.5999V45.2999H583.6H565.3V39.5999V36.8999V31.0999H571H575.2V24.7H562.8V48.3999H591.7V54.0999H562.8H557.1V48.3999V24.7V19.0999H562.8H575.2H580.9V24.7V31.0999V36.8999H575.2H571V39.5999H583.6V16.3999H554.8H525.9V39.5999H538.6V36.8999H534.3H528.6V31.0999V24.7V19.0999H534.3H546.8H552.5V24.7V48.3999V54.0999H546.8H517.9V48.3999H546.8V24.7H534.3V31.0999H538.6H544.3V36.8999V39.5999V45.2999H525.9H520.3V39.5999V16.3999V10.7Z" fill="#E0BE74"/>
<path fill-rule="evenodd" clip-rule="evenodd" d="M593.9 10.7H599.7H628.5H657.4H663V16.3999V39.5999V45.2999H657.4H639V39.5999V36.8999V31.0999H644.7H649V24.7H636.5V48.3999H665.4V54.0999H636.5H630.8V48.3999V24.7V19.0999H636.5H649H654.7V24.7V31.0999V36.8999H649H644.7V39.5999H657.4V16.3999H628.5H599.7V39.5999H612.3V36.8999H608.1H602.4V31.0999V24.7V19.0999H608.1H620.5H626.2V24.7V48.3999V54.0999H620.5H591.7V48.3999H620.5V24.7H608.1V31.0999H612.3H618V36.8999V39.5999V45.2999H599.7H593.9V39.5999V16.3999V10.7Z" fill="#E0BE74"/>
<path fill-rule="evenodd" clip-rule="evenodd" d="M667.7 10.7H673.3H702.2H731.1H736.8V16.3999V39.5999V45.2999H731.1H712.7V39.5999V36.8999V31.0999H718.5H722.7V24.7H710.3V48.3999H739.1V54.0999H710.3H704.6V48.3999V24.7V19.0999H710.3H722.7H728.4V24.7V31.0999V36.8999H722.7H718.5V39.5999H731.1V16.3999H702.2H673.3V39.5999H686.1V36.8999H681.8H676V31.0999V24.7V19.0999H681.8H694.3H700V24.7V48.3999V54.0999H694.3H665.4V48.3999H694.3V24.7H681.8V31.0999H686.1H691.8V36.8999V39.5999V45.2999H673.3H667.7V39.5999V16.3999V10.7Z" fill="#E0BE74"/>
<path fill-rule="evenodd" clip-rule="evenodd" d="M741.4 10.7H747.1H776H804.9H810.5V16.3999V39.5999V45.2999H804.9H786.5V39.5999V36.8999V31.0999H792.1H796.4V24.7H784V48.3999H812.8V54.0999H784H778.2V48.3999V24.7V19.0999H784H796.4H802.2V24.7V31.0999V36.8999H796.4H792.1V39.5999H804.9V16.3999H776H747.1V39.5999H759.7V36.8999H755.5H749.8V31.0999V24.7V19.0999H755.5H768H773.7V24.7V48.3999V54.0999H768H739.1V48.3999H768V24.7H755.5V31.0999H759.7H765.5V36.8999V39.5999V45.2999H747.1H741.4V39.5999V16.3999V10.7Z" fill="#E0BE74"/>
<path fill-rule="evenodd" clip-rule="evenodd" d="M815.2 10.7H820.8H849.7H878.5H884.3V16.3999V39.5999V45.2999H878.5H860.2V39.5999V36.8999V31.0999H865.9H870.2V24.7H857.7V48.3999H886.6V54.0999H857.7H852V48.3999V24.7V19.0999H857.7H870.2H875.8V24.7V31.0999V36.8999H870.2H865.9V39.5999H878.5V16.3999H849.7H820.8V39.5999H833.5V36.8999H829.2H823.5V31.0999V24.7V19.0999H829.2H841.7H847.4V24.7V48.3999V54.0999H841.7H812.8V48.3999H841.7V24.7H829.2V31.0999H833.5H839.2V36.8999V39.5999V45.2999H820.8H815.2V39.5999V16.3999V10.7Z" fill="#E0BE74"/>
<path fill-rule="evenodd" clip-rule="evenodd" d="M888.8 10.7H894.6H923.4H952.3H958V16.3999V39.5999V45.2999H952.3H934V39.5999V36.8999V31.0999H939.6H943.9V24.7H931.4V48.3999H962.1V54.0999H931.4H925.7V48.3999V24.7V19.0999H931.4H943.9H949.6V24.7V31.0999V36.8999H943.9H939.6V39.5999H952.3V16.3999H923.4H894.6V39.5999H907.2V36.8999H903H897.3V31.0999V24.7V19.0999H903H915.4H921.1V24.7V48.3999V54.0999H915.4H886.6V48.3999H915.4V24.7H903V31.0999H907.2H912.9V36.8999V39.5999V45.2999H894.6H888.8V39.5999V16.3999V10.7Z" fill="#E0BE74"/>
<path fill-rule="evenodd" clip-rule="evenodd" d="M962.1 10.7H967.8H996.7H1025.6H1031.3V16.3999V39.5999V45.2999H1025.6H1007.2V39.5999V36.8999V31.0999H1012.9H1017.1V24.7H1004.6V48.3999H1033.5V54.0999H1004.6H999V48.3999V24.7V19.0999H1004.6H1017.1H1022.9V24.7V31.0999V36.8999H1017.1H1012.9V39.5999H1025.6V16.3999H996.7H967.8V39.5999H980.5V36.8999H976.2H970.5V31.0999V24.7V19.0999H976.2H988.7H994.4V24.7V48.3999V54.0999H988.7H958V48.3999H988.7V24.7H976.2V31.0999H980.5H986.2V36.8999V39.5999V45.2999H967.8H962.1V39.5999V16.3999V10.7Z" fill="#E0BE74"/>
<path fill-rule="evenodd" clip-rule="evenodd" d="M1105 10.7H1099.3H1070.5H1041.6H1035.9V16.3999V39.5999V45.2999H1041.6H1059.9V39.5999V36.8999V31.0999H1054.2H1049.9V24.7H1062.4V48.3999H1033.5V54.0999H1062.4H1068.1V48.3999V24.7V19.0999H1062.4H1049.9H1044.3V24.7V31.0999V36.8999H1049.9H1054.2V39.5999H1041.6V16.3999H1070.5H1099.3V39.5999H1086.6V36.8999H1090.9H1096.6V31.0999V24.7V19.0999H1090.9H1078.4H1072.7V24.7V48.3999V54.0999H1078.4H1107.3V48.3999H1078.4V24.7H1090.9V31.0999H1086.6H1080.9V36.8999V39.5999V45.2999H1099.3H1105V39.5999V16.3999V10.7Z" fill="#E0BE74"/>
<path fill-rule="evenodd" clip-rule="evenodd" d="M1109.6 10.7H1115.3H1144.1H1173H1178.7V16.3999V39.5999V45.2999H1173H1154.6V39.5999V36.8999V31.0999H1160.3H1164.6V24.7H1152.1V48.3999H1181V54.0999H1152.1H1146.5V48.3999V24.7V19.0999H1152.1H1164.6H1170.3V24.7V31.0999V36.8999H1164.6H1160.3V39.5999H1173V16.3999H1144.1H1115.3V39.5999H1128V36.8999H1123.7H1118V31.0999V24.7V19.0999H1123.7H1136.2H1141.8V24.7V48.3999V54.0999H1136.2H1107.3V48.3999H1136.2V24.7H1123.7V31.0999H1128H1133.6V36.8999V39.5999V45.2999H1115.3H1109.6V39.5999V16.3999V10.7Z" fill="#E0BE74"/>
<path fill-rule="evenodd" clip-rule="evenodd" d="M1183.3 10.7H1189H1217.9H1246.8H1252.4V16.3999V39.5999V45.2999H1246.8H1228.3V39.5999V36.8999V31.0999H1234H1238.3V24.7H1225.9V48.3999H1254.7V54.0999H1225.9H1220.1V48.3999V24.7V19.0999H1225.9H1238.3H1244V24.7V31.0999V36.8999H1238.3H1234V39.5999H1246.8V16.3999H1217.9H1189V39.5999H1201.7V36.8999H1197.4H1191.7V31.0999V24.7V19.0999H1197.4H1209.8H1215.6V24.7V48.3999V54.0999H1209.8H1181V48.3999H1209.8V24.7H1197.4V31.0999H1201.7H1207.4V36.8999V39.5999V45.2999H1189H1183.3V39.5999V16.3999V10.7Z" fill="#E0BE74"/>
<path fill-rule="evenodd" clip-rule="evenodd" d="M1257.1 10.7H1262.7H1291.6H1320.4H1326.2V16.3999V39.5999V45.2999H1320.4H1302.1V39.5999V36.8999V31.0999H1307.8H1312V24.7H1299.6V48.3999H1328.4V54.0999H1299.6H1293.9V48.3999V24.7V19.0999H1299.6H1312H1317.7V24.7V31.0999V36.8999H1312H1307.8V39.5999H1320.4V16.3999H1291.6H1262.7V39.5999H1275.4V36.8999H1271.1H1265.4V31.0999V24.7V19.0999H1271.1H1283.6H1289.3V24.7V48.3999V54.0999H1283.6H1254.7V48.3999H1283.6V24.7H1271.1V31.0999H1275.4H1281.1V36.8999V39.5999V45.2999H1262.7H1257.1V39.5999V16.3999V10.7Z" fill="#E0BE74"/>
<path fill-rule="evenodd" clip-rule="evenodd" d="M1330.8 10.7H1336.5H1365.3H1394.2H1399.8V16.3999V39.5999V45.2999H1394.2H1375.8V39.5999V36.8999V31.0999H1381.5H1385.8V24.7H1373.3V48.3999H1402.2V54.0999H1373.3H1367.6V48.3999V24.7V19.0999H1373.3H1385.8H1391.5V24.7V31.0999V36.8999H1385.8H1381.5V39.5999H1394.2V16.3999H1365.3H1336.5V39.5999H1349.1V36.8999H1344.9H1339.2V31.0999V24.7V19.0999H1344.9H1357.3H1363V24.7V48.3999V54.0999H1357.3H1328.4V48.3999H1357.3V24.7H1344.9V31.0999H1349.1H1354.8V36.8999V39.5999V45.2999H1336.5H1330.8V39.5999V16.3999V10.7Z" fill="#E0BE74"/>
<path fill-rule="evenodd" clip-rule="evenodd" d="M1404.5 10.7H1410.1H1439H1467.9H1473.6V16.3999V39.5999V45.2999H1467.9H1449.5V39.5999V36.8999V31.0999H1455.3H1459.5V24.7H1447.1V48.3999H1475.9V54.0999H1447.1H1441.4V48.3999V24.7V19.0999H1447.1H1459.5H1465.2V24.7V31.0999V36.8999H1459.5H1455.3V39.5999H1467.9V16.3999H1439H1410.1V39.5999H1422.9V36.8999H1418.6H1412.9V31.0999V24.7V19.0999H1418.6H1431.1H1436.8V24.7V48.3999V54.0999H1431.1H1402.2V48.3999H1431.1V24.7H1418.6V31.0999H1422.9H1428.6V36.8999V39.5999V45.2999H1410.1H1404.5V39.5999V16.3999V10.7Z" fill="#E0BE74"/>
<path fill-rule="evenodd" clip-rule="evenodd" d="M1478.2 10.7H1483.9H1512.8H1541.7H1547.3V16.3999V39.5999V45.2999H1541.7H1523.3V39.5999V36.8999V31.0999H1528.9H1533.2V24.7H1520.8V48.3999H1549.6V54.0999H1520.8H1515V48.3999V24.7V19.0999H1520.8H1533.2H1539V24.7V31.0999V36.8999H1533.2H1528.9V39.5999H1541.7V16.3999H1512.8H1483.9V39.5999H1496.6V36.8999H1492.3H1486.6V31.0999V24.7V19.0999H1492.3H1504.7H1510.5V24.7V48.3999V54.0999H1504.7H1475.9V48.3999H1504.7V24.7H1492.3V31.0999H1496.6H1502.3V36.8999V39.5999V45.2999H1483.9H1478.2V39.5999V16.3999V10.7Z" fill="#E0BE74"/>
<path fill-rule="evenodd" clip-rule="evenodd" d="M1552 10.7H1557.6H1586.5H1615.3H1621.1V16.3999V39.5999V45.2999H1615.3H1597V39.5999V36.8999V31.0999H1602.7H1606.9V24.7H1594.5V48.3999H1623.4V54.0999H1594.5H1588.8V48.3999V24.7V19.0999H1594.5H1606.9H1612.6V24.7V31.0999V36.8999H1606.9H1602.7V39.5999H1615.3V16.3999H1586.5H1557.6V39.5999H1570.3V36.8999H1566H1560.3V31.0999V24.7V19.0999H1566H1578.5H1584.2V24.7V48.3999V54.0999H1578.5H1549.6V48.3999H1578.5V24.7H1566V31.0999H1570.3H1576V36.8999V39.5999V45.2999H1557.6H1552V39.5999V16.3999V10.7Z" fill="#E0BE74"/>
<path fill-rule="evenodd" clip-rule="evenodd" d="M1625.6 10.7H1631.4H1660.2H1689.1H1694.7V16.3999V39.5999V45.2999H1689.1H1670.7V39.5999V36.8999V31.0999H1676.4H1680.7V24.7H1668.2V48.3999H1697.1V54.0999H1668.2H1662.5V48.3999V24.7V19.0999H1668.2H1680.7H1686.4V24.7V31.0999V36.8999H1680.7H1676.4V39.5999H1689.1V16.3999H1660.2H1631.4V39.5999H1644V36.8999H1639.8H1634.1V31.0999V24.7V19.0999H1639.8H1652.2H1657.9V24.7V48.3999V54.0999H1652.2H1623.4V48.3999H1652.2V24.7H1639.8V31.0999H1644H1649.7V36.8999V39.5999V45.2999H1631.4H1625.6V39.5999V16.3999V10.7Z" fill="#E0BE74"/>
<path fill-rule="evenodd" clip-rule="evenodd" d="M1699.4 10.7H1705H1733.9H1762.8H1768.5V16.3999V39.5999V45.2999H1762.8H1744.4V39.5999V36.8999V31.0999H1750.2H1754.4V24.7H1742V48.3999H1770.9V54.0999H1742H1736.3V48.3999V24.7V19.0999H1742H1754.4H1760.1V24.7V31.0999V36.8999H1754.4H1750.2V39.5999H1762.8V16.3999H1733.9H1705V39.5999H1717.8V36.8999H1713.5H1707.8V31.0999V24.7V19.0999H1713.5H1726H1731.7V24.7V48.3999V54.0999H1726H1697.1V48.3999H1726V24.7H1713.5V31.0999H1717.8H1723.5V36.8999V39.5999V45.2999H1705H1699.4V39.5999V16.3999V10.7Z" fill="#E0BE74"/>
<path fill-rule="evenodd" clip-rule="evenodd" d="M1773.1 10.7H1778.8H1807.7H1836.6H1842.2V16.3999V39.5999V45.2999H1836.6H1818.2V39.5999V36.8999V31.0999H1823.8H1828.1V24.7H1815.7V48.3999H1844.5V54.0999H1815.7H1810V48.3999V24.7V19.0999H1815.7H1828.1H1833.9V24.7V31.0999V36.8999H1828.1H1823.8V39.5999H1836.6V16.3999H1807.7H1778.8V39.5999H1791.5V36.8999H1787.2H1781.5V31.0999V24.7V19.0999H1787.2H1799.7H1805.3V24.7V48.3999V54.0999H1799.7H1770.9V48.3999H1799.7V24.7H1787.2V31.0999H1791.5H1797.2V36.8999V39.5999V45.2999H1778.8H1773.1V39.5999V16.3999V10.7Z" fill="#E0BE74"/>
<path fill-rule="evenodd" clip-rule="evenodd" d="M1846.9 10.7H1852.5H1881.4H1910.2H1916V16.3999V39.5999V45.2999H1910.2H1891.9V39.5999V36.8999V31.0999H1897.6H1901.9V24.7H1889.4V48.3999H1920.1V54.0999H1889.4H1883.7V48.3999V24.7V19.0999H1889.4H1901.9H1907.5V24.7V31.0999V36.8999H1901.9H1897.6V39.5999H1910.2V16.3999H1881.4H1852.5V39.5999H1865.2V36.8999H1860.9H1855.3V31.0999V24.7V19.0999H1860.9H1873.4H1879.1V24.7V48.3999V54.0999H1873.4H1844.5V48.3999H1873.4V24.7H1860.9V31.0999H1865.2H1870.9V36.8999V39.5999V45.2999H1852.5H1846.9V39.5999V16.3999V10.7Z" fill="#E0BE74"/>
<path fill-rule="evenodd" clip-rule="evenodd" d="M1920.1 59H960H0V64.8H960H1920.1V59Z" fill="#E0BE74"/>
<path fill-rule="evenodd" clip-rule="evenodd" d="M1920.1 0H960H0V5.70001H960H1920.1V0Z" fill="#E0BE74"/>
</svg>
